/* XPM */
static char *cF9hXzE0[] = {
/* columns rows colors chars-per-pixel */
"64 64 199 2 ",
"   c #6B290B",
".  c #732B03",
"X  c #752E09",
"o  c #632615",
"O  c #79381C",
"+  c #5E332E",
"@  c #5D3735",
"#  c #663324",
"$  c #613C37",
"%  c #794837",
"&  c #5C484D",
"*  c #664949",
"=  c #74534D",
"-  c #64535C",
";  c #5F5865",
":  c #635661",
">  c #645863",
",  c #615D6A",
"<  c #745F66",
"1  c #62616F",
"2  c #6D6168",
"3  c #796366",
"4  c #606574",
"5  c #666B7B",
"6  c #6A6E7D",
"7  c #796C73",
"8  c #71717E",
"9  c #82370D",
"0  c #86390D",
"q  c #873D16",
"w  c #8B411B",
"e  c #96471A",
"r  c #9C4A1C",
"t  c #A14E1D",
"y  c #A4511B",
"u  c #AB571E",
"i  c #B75B1D",
"p  c #974A22",
"a  c #99592D",
"s  c #A24F21",
"d  c #A45222",
"f  c #A95524",
"g  c #A65A2B",
"h  c #B15B23",
"j  c #B95F24",
"k  c #BE6225",
"l  c #B7652A",
"z  c #AF6E34",
"x  c #AF6739",
"c  c #B56933",
"v  c #C36524",
"b  c #C76926",
"n  c #CB6B26",
"m  c #C96D28",
"M  c #D16E27",
"N  c #D16F28",
"B  c #D47127",
"V  c #D77328",
"C  c #D87429",
"Z  c #D47C2D",
"A  c #D97B2C",
"S  c #C67935",
"D  c #DA7F35",
"F  c #8F5F46",
"G  c #9B6241",
"H  c #9C725D",
"J  c #A76741",
"K  c #AD7548",
"L  c #B57646",
"P  c #AC7551",
"I  c #846966",
"U  c #99766B",
"Y  c #877478",
"T  c #957F7C",
"R  c #A37965",
"E  c #C57A43",
"W  c #DB812F",
"Q  c #CD8136",
"!  c #D38535",
"~  c #DC8531",
"^  c #DF8B35",
"/  c #D7883A",
"(  c #DC933B",
")  c #E08E36",
"_  c #E19037",
"`  c #E2943A",
"'  c #E59C3E",
"]  c #BE8851",
"[  c #99827D",
"{  c #A9806A",
"}  c #AB8C72",
"|  c #B8967A",
" . c #CD8744",
".. c #D88A46",
"X. c #DC9544",
"o. c #CA8852",
"O. c #D39556",
"+. c #E59E41",
"@. c #E0954A",
"#. c #E39B56",
"$. c #E7A141",
"%. c #E8A242",
"&. c #E5A04C",
"*. c #E8A64A",
"=. c #E9A953",
"-. c #E7A65B",
";. c #C88F62",
":. c #CB9976",
">. c #E49F61",
",. c #D0A076",
"<. c #E4A663",
"1. c #ECB268",
"2. c #E6AD79",
"3. c #EBB87B",
"4. c #6F7583",
"5. c #737886",
"6. c #847D86",
"7. c #7E8290",
"8. c #8D8188",
"9. c #968688",
"0. c #828692",
"q. c #858A97",
"w. c #8A8F9C",
"e. c #978C92",
"r. c #8E929E",
"t. c #98959C",
"y. c #A68E83",
"u. c #AA938A",
"i. c #B19A8E",
"p. c #A79797",
"a. c #BDA08E",
"s. c #BBA395",
"d. c #B2A29C",
"f. c #9195A1",
"g. c #9698A3",
"h. c #9B9EA9",
"j. c #A49FA4",
"k. c #9EA0A7",
"l. c #9EA2AC",
"z. c #ADA3A4",
"x. c #A1A3AC",
"c. c #A9A7A9",
"v. c #ABA5AA",
"b. c #B9ABA5",
"n. c #B3ACAC",
"m. c #BBB2AD",
"M. c #A2A6B1",
"N. c #A6A9B3",
"B. c #AAADB4",
"V. c #ABAEB8",
"C. c #B2ADB3",
"Z. c #ADB0B7",
"A. c #AEB1BA",
"S. c #B8B3B3",
"D. c #B2B5BD",
"F. c #BCB9BC",
"G. c #C9AB95",
"H. c #CBB19A",
"J. c #D5B89B",
"K. c #EAB884",
"L. c #C6B1A3",
"P. c #C7B8AC",
"I. c #D4BCA7",
"U. c #C1BAB6",
"Y. c #EEC18D",
"T. c #F2C994",
"R. c #F2C99A",
"E. c #D9C2AD",
"W. c #CCC2B5",
"Q. c #CCC5BD",
"!. c #D4C5B4",
"~. c #D8C9B7",
"^. c #DCCDBB",
"/. c #E8CCAD",
"(. c #F2CDA4",
"). c #F4D1A4",
"_. c #F4D3AC",
"`. c #EDCFB0",
"'. c #E4D3BD",
"]. c #F6D7B2",
"[. c #F6DBB6",
"{. c #F6DCBB",
"}. c #B6B9C2",
"|. c #BCBDC5",
" X c #C2BEC1",
".X c #BFC2C9",
"XX c #C1C1C5",
"oX c #C4C7CE",
"OX c #CCC9C8",
"+X c #D2CDC8",
"@X c #DDD4C9",
"#X c #E7D9C7",
"$X c #ECDBC4",
"%X c #F1DEC4",
"&X c #F1DFC8",
"*X c #F4E1C6",
"=X c #F9E3C5",
"-X c #F4E1C8",
";X c #FBE6C9",
/* pixels */
"oXoXoXoXoXoXoXoXoXoXoXoXoXoXoXoXoXoXoXoXoXoXoXoXoXoXoXoXoXoXoXoXoXoXoXoXoXoXoXoXoXoXoXoXoXoXoXoXoXoXoXoXoXoXoXoXoXoXoXoXoXoXoXoX",
"oXoXoXoXoXoXoXoXoXoXoXoXoXoXoXoXoXoXoXoXoXoXoXoXoXoXoXoXoXoXoXoXoXoXoXoXoXoXoXoXoXoXoXoXoXoXoXoXoXoXoXoXoXoXoXoXoXoXoXoXoXoXoXoX",
"oXoXoXoXoXoXoXoXoXoXoXoXoXoXoXoXoXoXoXoXoXoXoXoXoXoXoXoXoXoXoXoXoXoXoXoXoXoXoXoXoXoXoXoXoXoXoXoXoXoXoXoXoXoXoXoXoXoXoXoXoXoXoXoX",
"oXoXoXoXoXoXoXoXoXoXoXoXoXoXoXoXoXoXoXoXoXoXoXoXoXoXoXoXoXoXoXoXoXoXoXoXoXoXoXoXoXoXoXoXoXoXoXoXoXoXoXoXoXoXoXoXoXoXoXoXoXoXoXoX",
"oXoXoXoXoXoXoXoXoXoXoXoXoXoXoXoXoXoXoXoXoXoXoXoXoXoXoXoXoXoXoXoXoXoXoXoXoXoXoXoXoXoXoXoXoXoXoXoXoXoXoXoXoXoXoXoXoXoXoXoXoXoXoXoX",
"oXoXoXoXoXoXoXoXoXoXoXoXoXoXoXoXoXoXoXoXoXoXoXoXoXoXoXoXoXoXoXoXoXoXoXoXoXoXoXoXoXoXoXoXoXoXoXoXoXoXoXoXoXoXoXoXoXoXoXoXoXoXoXoX",
"oXoXoXoXoXoXoXoXoXoXoXoXoXoXoXoXoXoXoXoXoXoXoXoX+XoXoXoXoXoXoXoXoXoXoXoXoXoXoXoXoXoXoXoXoXoXoXoXoXoXoXoXoXoXoXoXoXoXoXoXoXoXoXoX",
"oXoXoXoXoXoXoXoXoXoXoXoXoXoXoXoXoXoXoXoXoXoXoXoXoXoXoXoXoXoXoXoXoXoXoXoXoXoXoXoXoXoXoXoXoXoXoXoXoXoXoXoXoXoXoXoXoXoXoXoXoXoXoXoX",
"oXoXoXoXoXoXoXoXoXoXoXoXoXoXoXoXoXoXoXoXoXoXoXoXoXoXoXoXoXoXoXoXoXoXoXoXoXoXoXoXoXoXoXoXoXoXoXoXoXoXoXoXoXoXoXoXoXoXoXoXoXoXoXoX",
"oXoXoXoXoXoXoXoXoXoXoXoXoXoXoXoXoXoXoXoXoXoXoXoXoXoXoXoXoXoXoXoXoXoXoXoXoXoXoXoXoXoXoXoXoXoXoXoXoXoXoXoXoXoXoXoXoXoXoXoXoXoXoXoX",
"oXoXoXoXoXoXoXoXoXoXoXoXoXoXoXoXoXoXoXoXoXoXoXoXoXoXoXoXoXoXoXoXoXoXoXoXoXoXoXoXoXoXoXoXoXoXoXoXoXoXoXoXoXoXoXoXoX+XoXoXoXoXoXoX",
"oXoXoXoXoXoXoXoXoXoXoXoXoXoXoXoXoXoXoXoXoXoXoXoXoXoXoXoXoXoXoXoXoXoXoXoXoXoXoXoXoXoXoXoXoXoXoXoXoXoXoXoXoXoXoXoXoXoXoXoXoXoXoXoX",
"oXoXoXoXoXoXoXoXoXoXoXoXoXoXoXoXoXoXoXoXoXoXoXoXoXoXoXoXoXoXoXoXoXoXoXoXoXoXoXoXoXoXoXoXoXoXoXoXoXoXoXoXoXoXoXoXoXoXoXoXoXoXoXoX",
"oXoXoXoXoXoXoXoXoXoXoXoXoXoXoXoXoXoXoXoXoXoXoXoXoXoXoXoXoXoXoXoXoXoXoXoXoXoXoX.XoXoXoXoXoXoXoX.XoXoXoXoXoXoXoXoXoXoXoXoXoXoXoXoX",
"oXoXoXoXoXoXoXoXoXoXoXoXoXoXoXoXoXoXoXoXoXoXoXoXoXoXoXoXoXoXoXoXoXoXoXoXoXb.O.] F.XXoXoXoXoX.XG d.oXoXoXoXoXoXoXoXoXoXoXoXoXoXoX",
"oXoXoXoXoXoXoXoXoXoXoXoXoXoXoXoXoXoXoXoXoXoXoXoXoXoXoXoXoXoXoXoXoXoXoXoXoX] $.$./ | P.oXoXoXF.g g m.oXoXoXoXoXoXoXoXoXoXoXoXoXoX",
"oXoXoXoXoXoXoXoXoXoXoXoXoXoXoXoXoXoXoXoXoXoXoXoXoXoXoXoXoXoXoXoXoXoXoXoXoX{ ( %.$.$.X.L.oXoXoXa b h U.oXoXoXoXoXoXoXoXoXoXoXoXoX",
"oXoXoXoXoXoXoXoXoXoXoXoXoXoXoXoXoXoXoXoXoXoXoXoXoXoXoXoXoXoXoXoXoXoXoXoXoXn.c ' %.%.$.@.:.G.a.P m u R oXoXoXoXoXoXoXoXoXoXoXoXoX",
"oXoXoXoXoXoX+XoXoXoXoXoXoXoXoXoXoXoXoXoXoXoXoXoXoXoXoXoXoXoXoXoXoXoXoXoXoXoXB.J.Q +.%.%.%.%.' ` Z C ! :.oXoXoXoXoXoXoXoXoXoXoXoX",
"oXoXoXoXoXoXoXoXoXoXoXoXoXoXoXoXoXoXoXoXoXoXoXoXoXoXoXoXoXoXoXoXoXoXoXoXoXoXoX9.G.m ^ %.$.%.%.%.%._ A  .F.oXoXoXoXoXoXoXoXoXoXoX",
"oXoXoXoXoXoXoXoXoXoXoXoXoXoXoXoXoXoXoXoXoXoXoXoXoXoXoXoXoXoXoXoXoXoXoXoXoX|.9.p ,.L v N A ) ' %.%.+.V ^ | oXoXoXoXoXoXoXoXoXoXoX",
"oXoXoXoXoXoXoXoXoXoXoXoXoXoXoXoXoXoXoXoXoXoXoXoX.X.XoX.XoXoXoXoXoXoXoXoXoXp.q k M C Z X.-.=.%.%.=.-.S / 2.XXoXoXoXoXoXoXoXoXoXoX",
"oXoXoXoXoXoXoXoXoXoXoXoXoXoXoXoXoXoXoXoXoXoXoXoXA.t.k.t.D.oXoXoXoXoXoXoX X% r n A ) =._.=X_.*.%.3.{. .E 2.XXoXoXoXoXoXoXoXoXoXoX",
"oXoXoXoXoXoXoXoXoXoXoXoXoXoXoXoXoXoXoXoX.XB.A.F.~.%X'.%XW.B..XoXoXoXoXoXC.O t v C ' K.&X;X_.&...g ;.+.S G .XoXoXoXoXoXoXoXoXoXoX",
"oXoXoXoXoXoXoXoXoXoXoXoXoXoXoXoXoXoXoX.Xc.*X;X;X;X;X;X=X{.=XW.A.oXoXoXXXI X t f N ` R.;X;X;XY.S a g ' %.Q s.oXoXoXoXoXoXoXoXoXoX",
"oXoXoXoXoXoXoXoXoXoXoXoXoXoXoXoX.X.XoXB.^.;X;X;X;X;X[.3.=.[.^.l..XoXoXoXT   0 f b ` 1.{.;X;X=X(.1.3.*.%.%./ i.oXoXoXoXoXoXoXoXoX",
"oXoXoXoXoXoXoXoXoXoXoXoXoXoXoXoXl.r..Xx.%X;X;X;X=XT.=.%.*.=.3.d..XoXoXoXA.O 9 t m A ` 2.;X=X=X;X=X=X).R.-.` a z.oXoXoXoXoXoXoXoX",
"oXoXoXoXoXoXoXoXoXoXoXoXoXoXoXoX.XD..Xm.;X;X;X;X].=.%.%.%.%.%.O.n.oXoXoX.XU X t b C ` S R.%X=X;X;X;X;X;X[.o.9 p.oXoXoXoXoXoXoXoX",
"oXoXoXoXoXoXoXoXoXoXoXoXoXoXoXoXl.M.k.$X;X;X;X{.1.%.%.%.%.%.%.$.o.U.XXd.u.H j v V V A B l -.).=X*X=X;X`.%X(.h i.oXoXoXoXoXoXoXoX",
"oXoXoXoXoXoXoXoXoXoXoXoXoXoXoXoXh.B.k.$X;X;X;X3.*.%.$._ _ $.%.` Q m.d.r h m C W A C V V m B #.{.#Xc.^.K x s.R XXoXoXoXoXoXoXoXoX",
"oXoXoXoXoXoXoXoXoXoXoXoXoXoXoXoXf.B.t.*X;X;X;X).*.' w w M W $.! f d r f v B V ~ ` A V C C C ` T.%Xx.D.n.R |.oXoXoXoXoXoXoXoXoXoX",
"oXoXoXoXoXoXoXoXoXoXoXoXoXoXoXoXA.}.A.$X;X;X;X=X1.! o . u A ' y B n y r f B B A ' ) C V C C ) Y.=Xx.|.oXs.oXoXoXoXoXoXoXoXoXoXoX",
"oXoXoXoXoXoXoXoXoXoXoXoXoXoXoX.XV.h.D.~.;X;X;X;X_.#.q   f N m i A W V v f k B V A ) ` W C C V -.%Xj.|.oXXXoXoX.XoXoXXXoXoXoXoXoX",
"oXoXoXoXoXoXoXoXoXoXoXoXoXoXoXoXN.g.XXc.-X;X;X;X;XK.n t q t i C A ' ^ A n h b C V ) ' ) C C V #.%Xg.oXoXoXD.p.H n.n.U c.XXoXoXoX",
"oXoXoXoXoXoXoXoXoXoXoXoXoXoXoXoX.XoXoXl.v.$X;X;X-X;X2.V n n V C A ' $._ V B n C C C ` +.C C V D [.x.D.j.S.z / ! z g B x |.oXoXoX",
"oXoXoXoXoXoXoXoXoXoXoXoXoXoXoXoXoX.XB.W.Q.m.^.#X;X;X%X3.D V C C B ^ %.' W B V C C C C ' A C C b a.M.U S ] -.z e c ! B l |.oXoXoX",
"oXoXoXoXoXoXoXoXoXoXoXoXoXoXoXoXV.S.-X;X&XoX}.XX&X;X;X{.>./ C C C C W $.$.W V C C C C A A C M M F }.K ` $.*.2.z t f S m c R p.XX",
"oXoXoXoXoXoXoXoXoXoXoXoXoXoXoXA.r.~.;X;X&XoX7.M.#X=X;X=X=X[.X.C C C W ' $.A C V C C C C V M b C B R J +.' $.*.2.g g O.( n V k p.",
"oXoXoXoXoXoXoXoXoXoXoXoXoXoX.Xk.^.;X=X;X-X+XV.|.&X;X;X;X;X[.^ A C C C W ' ` C C C C C C V j f n V m r u Q W ( *.3.<.@.! m N v J ",
"oXoXoXoXoXoXoXoXoXoXoXoXoXD.x.!.;X;X;X;X;X-X@X#X;X;X;X;X=X%X<.A C C C C A _ A C C C C M b h 0 h V V V v u l ] } ;.u.K f p g * I ",
"oXoXoXoXoXoXoXoXoXoXoXoXN.m.%X;X;X;X;X;X;X;X;X;X;X;X;X;X;X;X=X3.-.C C C B B V C C V V n f f q d C / V A / `.+X.XQ.-Xm.w @ ; f..X",
"oXoXoXoXoXoXoXoXoX.XB.n.^.;X;X;X;X;X;X;X;X;X;X;X;X;X;X;X;X;X;X;X=X2.C C V B k b n n v k f f q I !.'././.!.d.p.|..XF.Y ; 6 g..X.X",
"oXoXoXoXoXoX.Xp.8.F.$X*X;X;X;X;X;X;X;X;X;X;X;X;X;X;X;X;X;X;X;X;X;X{.-.B B j 0 0 r d d f s q $ - e.6.e.9.- 4 4 , - 8 r.D.oXoXoXoX",
"oXoXoXoX}.n.Y c.q.OX;X=X;X;X;X;X;X;X;X;X;X;X;X;X;X;X;X;X;X;X;X;X;X=X#.B n e . . . X e e # $ ; 5 > 4 , 4 6 0.l.l.x.oXoXoXoXoXoXoX",
"oXC.p.6.p.z.XX@X#X*X*X@XP.I.$XL.E.I.-X-X;X=X;X;X;X-X!.^.&XQ.-X;X;X;XK.V f e . o $ $ * $ 4 4.5.w.x.N.x.D..X.XoXoXoXoXoXoXoXoXoXoX",
"e.Y z.oXoX#X$XH.u.3 3 < - : 3 , > > i.y.P.d.L.!.^.m.U.P.b.W.=X;X;X{...k 9   # ; 5 4.7.7.N.|..XoXoXoXoXoXoXoXoXoXoXoXoXoXoXoXoXoX",
"6.5.A.+X$X'.[ , 4 4 4 4 4 5 4 4 4 4 1 1 - , ; - z.OXoX#X-X;X-X=X=X2.f O + & 8 w.}. XoXoXoXoXoXoXoXoXoXoXoXoXoXoXoXoXoXoXoXoXoXoX",
"e.j.m.y.Y < , 6 5.r.f.A.A.A.D.A.l.f.q.6 6 5 4 7 j.}.oXOX%XG.T 3 [ = - 2 q.h.|.oXoXoXoXoXoXoXoXoXoXoXoXoXoXoXoXoXoXoXoXoXoXoXoXoX",
" Xh.4.4.4.q.h.oXoXoXoXoXoXoXoXoXoXoXoXoXoXoXt.j.g.N.@XI.< 5 q.f.g.N.oXoXoXoXoXoXoXoXoXoXoXoXoXoXoXoXoXoXoXoXoXoXoXoXoXoXoXoXoXoX",
"oXoXoXoXoXoXoXoXoXoXoXoXoXoXoXoXoXoXoXoXoXoX|.e.}.!.u.> 5 V.oXoXoXoXoXoXoXoXoXoXoXoXoXoXoXoXoXoXoXoXoXoXoXoXoXoXoXoXoXoXoXoXoXoX",
"oXoXoXoXoXoXoXoXoXoXoXoXoXoXoXoXoXoXoXoXoXoXoXB.7 3 7 0.V.oXoXoXoXoXoXoXoXoXoXoXoXoXoXoXoXoXoXoXoXoXoXoXoXoXoXoXoXoXoXoXoXoXoXoX",
"oXoXoXoXoXoXoXoXoXoXoXoXoXoXoXoXoXoXoXoXoXoXoXoX}.V.}.oXoXoXoXoXoXoXoXoXoXoXoXoXoXoXoXoXoXoXoXoXoXoXoXoXoXoXoXoXoXoXoXoXoXoXoXoX",
"oXoXoXoXoXoXoXoXoXoXoXoXoXoXoXoXoXoXoXoXoXoXoXoXoXoXoXoXoXoXoXoXoXoXoXoXoXoXoXoXoXoXoXoXoXoXoXoXoXoXoXoXoXoXoXoXoXoXoXoXoXoXoXoX",
"oXoXoXoXoXoXoXoXoXoXoXoXoXoXoXoXoXoXoXoXoXoXoXoXoXoXoXoXoXoXoXoXoXoXoXoXoXoXoXoXoXoXoXoXoXoXoXoXoXoXoXoXoXoXoXoXoXoXoXoXoXoXoXoX",
"oXoXoXoXoXoXoXoXoXoXoXoXoXoXoXoXoXoXoXoXoXoXoXoXoXoXoXoXoXoXoXoXoXoXoXoXoXoXoXoXoXoXoXoXoXoXoXoXoXoXoXoXoXoXoXoXoXoXoXoXoXoXoXoX",
"oXoXoXoXoXoXoXoXoXoXoXoXoXoXoXoXoXoXoXoXoXoXoXoXoXoXoXoXoXoXoXoXoXoXoXoXoXoXoXoXoXoXoXoXoXoXoXoXoXoXoXoXoXoXoXoXoXoXoXoXoXoXoXoX",
"oXoXoXoXoXoXoXoXoXoXoXoXoXoXoXoXoXoXoXoXoXoXoXoXoXoXoXoXoXoXoXoXoXoXoXoXoXoXoXoXoXoXoXoXoXoXoXoXoXoXoXoXoXoXoXoXoXoXoXoXoXoXoXoX",
"oXoXoXoXoXoXoXoXoXoXoXoXoXoXoXoXoXoXoXoXoXoXoXoXoXoXoXoXoXoXoXoXoXoXoXoXoXoXoXoXoXoXoXoXoXoX+XoXoXoXoXoXoXoXoXoXoXoXoXoXoXoXoXoX",
"oXoXoXoXoXoXoXoXoXoXoXoXoXoXoXoXoXoXoXoXoXoXoXoXoXoXoXoXoXoXoXoXoXoXoXoXoXoXoXoXoXoXoXoXoXoXoXoXoXoXoXoXoXoXoXoXoXoXoXoXoXoXoXoX",
"oXoXoXoXoXoXoXoXoXoXoXoXoXoXoXoXoXoXoXoXoXoXoXoXoXoXoXoXoXoXoXoXoXoXoXoXoXoXoXoXoXoXoXoXoXoXoXoXoXoXoXoXoXoXoXoXoXoXoXoXoXoXoXoX",
"oXoXoXoXoXoXoXoXoXoXoXoXoXoXoXoXoXoXoXoXoXoXoXoXoXoXoXoXoXoXoXoXoXoXoXoXoXoXoXoXoXoXoXoXoXoXoXoXoXoXoXoXoXoXoXoXoXoXoXoXoXoXoXoX",
"oXoXoXoXoXoXoXoXoXoXoXoXoXoXoXoXoXoXoXoXoXoXoXoXoXoXoXoXoXoXoXoXoXoXoXoXoXoXoXoXoXoXoXoXoXoXoXoXoXoXoXoXoXoXoXoXoXoXoXoXoXoXoXoX",
"oXoXoXoXoXoXoXoXoXoXoXoXoXoXoXoXoXoXoXoXoXoXoXoXoXoXoXoXoXoXoXoXoXoXoXoXoXoXoXoXoXoXoXoXoXoXoXoXoXoXoXoXoXoXoXoXoXoXoXoXoXoXoXoX",
"oXoXoXoXoXoXoXoXoXoXoXoXoXoXoXoXoXoXoXoXoXoXoXoXoXoXoXoXoXoXoXoXoXoXoXoXoXoXoXoXoXoXoXoXoXoXoXoXoXoXoXoXoXoXoXoXoXoXoXoXoXoXoXoX"
};
