/* XPM */
static char *_5ac4ea49a4a4a5aa0aee74c4f1cce29MtpimeW0fNMzfjOm[] = {
/* columns rows colors chars-per-pixel */
"64 64 160 2 ",
"   c #00221E",
".  c #111C31",
"X  c #022524",
"o  c #032F2B",
"O  c #04342D",
"+  c #122438",
"@  c #073735",
"#  c #053B35",
"$  c #053F38",
"%  c #05413A",
"&  c #09453D",
"*  c #10423B",
"=  c #241745",
"-  c #231B45",
";  c #2C194F",
":  c #2D1851",
">  c #361D57",
",  c #35155A",
"<  c #351D59",
"1  c #1F2B4C",
"2  c #153A49",
"3  c #2B3153",
"4  c #2E3052",
"5  c #3C1964",
"6  c #3F2061",
"7  c #45166F",
"8  c #4F1F6E",
"9  c #4D1A79",
"0  c #4A246D",
"q  c #4F2077",
"w  c #602173",
"e  c #653773",
"r  c #7E3875",
"t  c #773878",
"y  c #0B4540",
"u  c #0A4B44",
"i  c #144C46",
"p  c #0C534A",
"a  c #1F534C",
"s  c #0E5A52",
"d  c #1E5852",
"f  c #20524C",
"g  c #2C495D",
"h  c #235A56",
"j  c #325F5B",
"k  c #0E6056",
"l  c #1A635A",
"z  c #23675F",
"x  c #31605B",
"c  c #37466E",
"v  c #1B6C61",
"b  c #246D64",
"n  c #2D6F66",
"m  c #3C6462",
"M  c #346D69",
"N  c #277267",
"B  c #267268",
"V  c #27786F",
"C  c #28786E",
"Z  c #2F7771",
"A  c #317D73",
"S  c #46485E",
"D  c #7D4277",
"F  c #7D4E7B",
"G  c #7E5C7B",
"H  c #466B69",
"J  c #487B77",
"K  c #901E3B",
"L  c #9A2238",
"P  c #A32637",
"I  c #AD2A34",
"U  c #A42538",
"Y  c #B92E31",
"T  c #BF3259",
"R  c #BE3C5D",
"E  c #AB3362",
"W  c #C93757",
"Q  c #DB3F7F",
"!  c #E45D46",
"~  c #E66047",
"^  c #DA407E",
"/  c #ED766C",
"(  c #3C857C",
")  c #418078",
"_  c #551783",
"`  c #561E84",
"'  c #5F1A8D",
"]  c #67179C",
"[  c #68179C",
"{  c #67189C",
"}  c #68189D",
"|  c #7319A4",
" . c #8C3F9D",
".. c #821BAC",
"X. c #8F1DB4",
"o. c #9D1FBE",
"O. c #8C2FA9",
"+. c #8C39A9",
"@. c #9E20BF",
"#. c #CF3B82",
"$. c #B147B8",
"%. c #B257B9",
"&. c #C64B89",
"*. c #DA4080",
"=. c #D04F85",
"-. c #D94A81",
";. c #DA5483",
":. c #EF678D",
">. c #EE688D",
",. c #EE738D",
"<. c #F2788E",
"1. c #F27190",
"2. c #DF57AE",
"3. c #EB48A4",
"4. c #EA52A5",
"5. c #EA5CAA",
"6. c #EB66AC",
"7. c #F566AE",
"8. c #F36BB0",
"9. c #F775B3",
"0. c #F67EB4",
"q. c #B635C4",
"w. c #B53EC5",
"e. c #C62EC4",
"r. c #CD4CCB",
"t. c #CC5ECB",
"y. c #FD51CC",
"u. c #FB5ACF",
"i. c #ED46D1",
"p. c #EE51D4",
"a. c #F45BD3",
"s. c #FB5AD0",
"d. c #D663C7",
"f. c #D77CC9",
"g. c #E462D2",
"h. c #FC64D1",
"j. c #FB6ED5",
"k. c #FC79D7",
"l. c #FD79D8",
"z. c #458B82",
"x. c #4B8882",
"c. c #549089",
"v. c #639D97",
"b. c #6A9A97",
"n. c #639E98",
"m. c #6CA39F",
"M. c #77AAA6",
"N. c #7FB0AD",
"B. c #80AFAC",
"V. c #80B0AC",
"C. c #8BB5B4",
"Z. c #F587B3",
"A. c #F590B5",
"S. c #FA82D7",
"D. c #FB8BD7",
"F. c #FA82D8",
"G. c #FB8BD9",
"H. c #FB94D7",
"J. c #FB94D8",
"K. c #FD9DDA",
/* pixels */
"} } ] 7 = = = = = = = = = = = = = = = = = = = = = = = = = = = = = = = = = = = = = = = = = = = = = = = = = = , _ [ [ } } } } } } ",
"} } } { { 7 = = = = = = = = = : < < ; = = = - = - = = = = . = = = = = = = = = = = = = - = = = = = = = , 7 { [ { { ] [ [ } } } } ",
"} } } } } { { _ 7 , = : 0 0 0 0 0 0 0 0 0 > > > > : > 0 0 0 0 0 > : = = = = = = = = = = = = = > _ ] [ [ ] ] { { { _ 7 7 { { } } ",
"} } } } } } { ] } { ] ' ` ` 0 0 0 0 0 0 0 0 0 0 0 0 0 0 0 0 0 > > 0 0 > = = = = = = = = = = = = = = , 7 7 7 7 = = = = = = 7 ] } ",
"} } } } } } } } } } } } { { { { { ` ` 0 0 0 0 0 0 0 0 0 > = = = = = = > > = = = = = = = = = = = = = = = = = = = = = = = = 7 _ ] ",
"} } } } } } } } } } } } { { } { } { { ' ` q 0 0 6 > : = = = = = = = = = = = = = - = = = = = = = = = = = ; > > > < 5 7 { ] { ] ] ",
"} } } } } } } } } } } } } } } } } } } [ { { { 7 7 , = = = = = = = - = = = = > > > ; = = = = = - = . : < 0 0 0 0 ' { } } } } } } ",
"} } } } } } } } } } } } } } } } } } } } } { } } { { 9 7 7 = = = = = = = > 0 0 0 0 0 0 0 > > > > 0 0 0 8 0 q ` { ] } } } } } } } ",
"} } } } } } } } } } } } } } } } } } } } } { [ { { { 7 7 7 7 7 7 = = = > > > > 0 0 0 0 q ` ' { ` q 0 q ' { ] { } } } } } } } } } ",
"[ } } } } } } } } } } } } } } } [ [ { 7 7 7 = = = = = = = = = = = = = = = = - = > 0 0 0 0 0 q ` ] ] ] ] { [ } [ } } } } } } } } ",
"@.....} } } } } } } } } } } } } [ _ = = = = = = = = = = = = = = = = = = = = = = - = = ; > > > > < 6 q ` ` ' ] ] } } } } } } } } ",
"@.@.@.@.@...| | } } } } } } } } { [ [ } { { ] ] { { _ , = = = = - = = = = = = = - = = = = = = = = = = = = = = , { } } } } } } } ",
"@.@.@.@.@.@.@.@.@.@.@.......[ [ } } } } } } } } { { { { _ , = = = = = = = = = = = = = = = = = = = = = = = = = , { } } } } } } } ",
"@.@.X...| [ ] [ [ [ [ [ } [ [ [ } } } } } } } } { [ [ ] { { { { ` 7 7 , = = = = = = = = = = = = = = = = = , 7 ] } } } ] [ [ [ ] ",
"@.@.[ [ ] } } } } } } } } } [ [ { ] } [ { } } } { } } { { 7 7 7 7 = = = = = = = = = = = = = = = = = = 7 7 { } } } } ] | ......X.",
"@.@...[ ] [ ] } } } } } } } [ [ { _ 7 7 7 7 7 7 7 7 7 , = = = = = = = = = = = = = = = = = = = , 7 { { { } } } } } } } ] [ [ ....",
"@.@.@.@.X...| [ [ [ [ } { ` ` 0 < < < ; - - = = = = = = = = = = = = = = = = = = 9 5 ] } [ [ [ } } } } } } } } } } } } } ] [ ] [ ",
"@.@.@.@.@.@.o.@.X.| ] ` 0 0 0 0 0 0 0 0 0 0 0 6 < < > > > ; = = = = = = = , _ ] [ } } } [ } } } } } } } } } } } } } ] ] | ..X.@.",
"@.X.......[ [ [ ] ] q 0 0 0 0 0 0 0 0 0 0 0 0 0 0 < < ; = = = = = = = , _ ] ] ] [ [ } } [ [ } } } } } } } } } [ ] [ ..X.@.@.@.@.",
"[ [ [ [ [ [ [ [ } ' 0 0 0 0 0 0 0 0 0 0 0 0 < ; = = = = = = = = , 5 ] ] ] ] ] ] ] [ } } [ [ } [ [ [ [ } [ [ [ ..X.@.@.@.@.@.@.@.",
"} } } } [ [ [ } { ` 0 0 0 0 0 0 0 0 0 < ; = = = = = = = = 7 7 _ [ [ ] ] ] 5 7 , = = 5 9 _ ] ] | ..........@.@.@.@.@.o.o.@.@.@.@.",
"} } } } [ [ } } { ` 0 0 0 0 0 9 < ; = = - = = = = = = = = = = g = = = = = = : = = = = = = , 5 [ [ ......@.o.@.o.@.o.o.o.@.@.@.@.",
"} } } } } } } } { { ` ` : = = = = = = = = = = = = = = = = = g m.2 = = = = = = = = = = = ; = = 9 ] [ [ [ { | ........X.o.o.q.@.@.",
"[ [ [ } } } } } { { { { { { _ 7 7 7 ] ] ] ] 5 = = = = = = = = 2 2 1 3 = = = = = = = : 5 5 ] ] } } } } } [ { [ ] [ [ [ | o.@.@.@.",
"X.| | | } [ [ [ } } } } } [ [ [ ] { { } } } { { _ 7 7 = = 1 n.M + V v.= = = = = , _ ] ] } } } } } } [ [ [ [ [ | [ [ | o.o.@.@.@.",
"@.@.@.X...X...| } } [ [ } } [ [ { { } } } } } { ] { { { { c n.z.@ 2 1 = = = , _ ] ] ] } } } } } } } [ | [ [ [ | | X.@.@.@.@.@.@.",
"@.@.@.@.@.@.@.@.@.@.X.| } } } } } } } } } } } [ ] ] { , = = h l u = = = = 5 ] ] ] } } [ } } } } } } [ | X.@.@.@.@.@.@.@.@.@.@.@.",
"@.@.@.@.@.@.@.@.@.@.@.@.@.X.| } [ } } } } } ] 7 , = = = = = = = + = = , ] ] ] ] } } } [ } | ..@.@.@.@.@.@.@.@.@.@.@.@.@.@.@.@.@.",
"@.@.@.@.@.@.@.@.@.@.@.@.@.@.@.X.| [ ] [ [ { 7 = = = . y i a a a f j H H j j , } ] [ [ [ [ [ [ [ | | @.@.@.@.@.@.@.@.@.@.@.@.@.@.",
"@.@.@.@.@.@.@.@.@.@.@.@.@.@.@.@.@.@.X.....[ 7 = = . & d ( ( p n z.C.n.C.n.C.N.- 9 5 ] ] } } } } [ [ [ o.@.@.@.@.@.@.@.@.@.@.@.@.",
"@.@.@.@.@.@.@.@.@.@.@.@.@.@.@.@.X..........._ = = y s l # ( v % c.C.M.M.C.M.M.j = = = = , _ [ } [ [ [ [ | | X.o.@.@.@.@.@.@.@.@.",
"@.@.@.@.@.@.@.@.@.@.@.@.@.X...} ] ] ] ] [ [ ] 7 = i A p i ( ( V m.B.o u C.o u M = = = = = _ [ } } [ [ [ [ [ [ | | o.@.@.@.@.@.@.",
"@.@.@.@.@.@.@.@.@.@.@.@.@.X.] { [ } } } } } } } { a C k b u n ( N.V.  $ C.X % H = = = = _ { { } } } } } } } } } } { ] | ..@.@.@.",
"@.@.@.@.@.@.@.@.@.@.@.@.@.@.@.X...[ [ [ } } } } { i # ( # l & ( C.V.H J M H J H > 5 7 { { { } } } } } } } } } } [ ] | ..@.@.@.@.",
"@.@.@.@.@.@.@.@.@.q.@.@.@.@.@.@.@.@.@...} } } } { O i s u ( V ( C.m.b.M O M b.m ' { } } [ } } } } ] [ [ { } { { ..X.o.@.@.@.@.@.",
"@.@.@.@.@.@.@.@.o.o.@.@.@.@.@.@.@.@.@.@.X...} } { % N v N u h ( N.C.H X   o x.m { } } } } } [ [ [ | ......@.@.@.@.@.@.@.@.@.@.@.",
"@.@.@.@.@.@.@.@.o.o.o.o.@.@.@.@.@.@.@.@.@.@.@.| { i ( A n A s ( m.m.H     o J m { } } } } } } | ....@.o.o.o.@.@.@.o.@.o.@.@.@.q.",
"l.r.r.q.q.@.@.q.o.o.o.o.@.@.@.@.@.@.@.@.@.@.@.@.@.3 ( s h ( A # ) M.H % M.o ) 3 } } { ] } } } { +.] [ ] O.] { O.{ ....g.@.r.g.l.",
"l.G.l.l.l.d.r.l.r.o.q.q.q.q.@.@.@.@.@.@.w.@.@.@.@. .i B V ( ( l N M.C.C.V.M.H 9 } } +.+.} +.%.K.f.%.%.$.l.$.$.d.d.d.9.8.l.l.S.k.",
"J.J.G.1.l.l.F.l.Z.l.l.l.9.F.k.D.J.J.t.t.K.t.t.t.t.f.S.G O y i a a f f i O G f.K.F.K.K.K.A.J.K.H.F.G.F.F.J.G.! J.k.k.9.9.G.G.K.F.",
"l.l.l.F.D.F.G.G.S.D.9.J.F.J.H.D.F.F.J.Z.J.K.A.K.S.K.K.D.& A ( ( u M ) ( i G.H.A.K.K.G.H.K.k.S.8.9.J.A.H.G.F.S.k.k.k.J.k.G.G.k.G.",
"l.1.>.D.<.J.K.J.8.1.S.J.H.F.H.H.J.G.9.>.k.D.J.F.K.K.S.H.i ( b ( l ) M.C.m D.H.H.S.K.H.~ k.k.S.9.9.F.S.k.9.k.>.k.9.k.k.k.l.k.9.k.",
"F.l.l.l.,.k.l.k.! k.k.k.k.9.>.1.l.9.l.1.k.S.l.k.D.Z.A.K.a V % ( ) V.C.( j K.S.Z.k.F.F.k.k.S.D.D.S.k.1.9.k.S./ J.S.k.k.9.S.k.,.9.",
"J.J.l.l.F.l.l.J.S.k.H.k.J.k.9.9.l.l.l.J.F.K.J.A.Z.Z.Z.A.a ( ( ( c.( m.m.h k.9.k.k.k.K.G.K.H.~ H.G.F.8.9.k.G.S.F.G.1.k.k.J.H.G.K.",
"G.F.S.Z.F.F.l.F.K.D.~ H.J.k.9.8.l.K.l.D.D.<.D.k.k.F.l.G.f V * n n.z.n.C.M D.k.k.F.J.S.F.S.9.S.k.G.F.k.k.k.k.k.l.S.,.k.G.F.F.G.0.",
"k.G.l.k.l.l.F.D.F.G.k.G.G.G.k.k.l.Z.k.k.k.>.9.k.l.F.k.k.f A & l n.N.N.C.H H.k.k.:.1.:.k.l.S.k.8.9.k.l.k.~ k.l.k.F.G.G.k.k.l.k.9.",
"k.J.k.k.l.l.l.9.9.k.k.1.k.F.F.1.:.k.k.K.S.S.k.k.F.J.D.S.f z ( ( c.C.) m.H D.k.k.1.k.k.J.k.J.9.<.0.l.l.k.k.k.k.9.9.k.>.9.9.k.k.K.",
"F.F.S.~ k.l.l.9.8.k.k.>.H.G.<.S.k.F.k.S.S.k.~ 9.k.l.l.k.y O ( C % C.m.n.m D.G.l.k.l.k.H.K.J.A.Z.J.F.k.J.9.k.F.>.k.k.k.k.k.1.>.0.",
"y.h.I 6.k.l.l.k.l.k.k.k.k.k.:.k.k.K.Z.1.S.J.S.:.k.l.F.k.u ( ( ( z.C.C.C.x >.k.h.j.k.l.l.k.l.k.l.k.k.k.J.k.l.G.G.G.k.J.l.l.k.k.k.",
"y.j.6.6.l.l.l.l.h.k.! y.k.k.k.S.D.J.J.F.K.H.S.k.k.S.4 o O & a & a a m m & a S y.h.k.y.7.8.9.k.k.G.k.k.l.k.l.F.K.D.H.J.l.l.l.k.;.",
"s.l.l.l.l.j.j.l.u.7.u.j.k.k.9.k.;.k.k.k.S.k.D.S.k.G O & O F   ( ( V F D A ( C r y.8.u.9.9.k.k.k.J.F.6.6.9.k.6.P 6.l.l.l.k.u.j.u.",
"y.y.j.l.k.j.y.j.l.h.j.;.Q k.k.k.;.k.k.k.9.k.! 6.k.F % O % F X b b b r r N b ( D y.y.h.y.h.k.k.S.k.k.P P k.k.6.P ;.l.k.D.k.R R k.",
";.k.l.l.;.R k.l.l.k.k.k.k.k.k.6.6.k.k.6.I 6.6.6.k.F O O O F X ( ( l D r ( ( s F h.j.l.h.;.P k.k.l.k.;.;.k.l.j.5.=.k.F.J.F.R I k.",
"R ;.k.k.k.;.k.k.k.k.l.k.;.k.k.P I j.k.6.P 6.k.k.k.F # # # e   Z Z A e t Z Z b F k.l.l.l.k.-.j.k.l.l.l.h.h.j.y.4.I k.k.6.6.k.k.k.",
"k.k.k.k.k.l.u.W W l.k.;.K ;.h.6.4.u.6.6.k.l.i.e.e.8 X X X 8 - % % % 8 8 % % # w e.i.h.h.j.y.5.6.y.j.k.k.u.u.3.I 6.k.k.I P k.h.u.",
"P =.Y j.l.u.y.W I l.k.k.;.6.u.h.j.y.I P k.p.o.o.o.o.8 8 0 o.@.q 8 0 @.@.8 8 8 o.o.o.p.u.u.j.6.Y h.u.h.h.h.y.3.U 3.j.k.6.6.k.j.y.",
"6.6.j.y.s.y.*.E k.l.l.l.l.l.l.h.l.j.5.;.h.l.i.e.e.o.o.o.o.@.o.o.@.@.@.@.o.o.o.e.e.i.l.u.y.y.y.y.y.y.h.y.j.h.y.j.j.k.l.h.k.l.l.u.",
"k.k.j.s.y.y.u.-.k.k.h.u.l.l.l.k.l.l.k.h.h.j.l.l.l.j.a.p.p.r.r.r.r.r.r.p.p.a.j.l.l.l.l.l.j.u.u.l.y.y.j.j.l.h.l.l.j.j.u.y.k.l.l.j.",
"s.y.y.y.y.y.y.s.h.j.j.y.h.l.k.l.l.l.l.k.k.l.l.l.l.l.l.l.l.k.l.j.j.k.l.j.j.l.l.l.l.l.l.l.k.k.l.k.;.6.l.l.l.l.l.l.j.y.y.h.6.6.k.k.",
"h.-.k.j.s.j.y.y.u.u.s.s.u.k.=.2.y.h.;.K s.l.l.u.s.k.k.l.l.h.l.h.u.k.k.h.s.j.j.l.j.j.j.T I k.k.;.L 6.l.y.j.l.6.;.h.s.y.y.U P y.h.",
"R L ;.k.k.k.j.4.4.k.u.y.y.y.R #.h.l.k.;.y.j.s.y.j.U &.l.l.s.j.l.y.h.h.h.y.s.y.h.u.j.h.;.6.l.h.l.k.h.l.l.j.h.I W s.y.y.y.y.^ y.y.",
";.;.u.h.k.k.6.L P k.l.l.l.l.k.k.l.l.l.l.s.y.y.h.l.4.4.h.h.h.y.y.y.u.y.y.y.y.y.h.j.l.l.l.l.u.y.l.l.y.j.l.l.l.l.l.l.l.l.l.u.y.y.y.",
"k.j.I R u.h.6.Y ;.k.k.k.h.^ 6.k.j.h.y.y.h.y.y.y.y.y.y.y.y.y.h.y.y.l.h.#.l.l.l.;.=.l.y.h.l.y.u.l.j.s.y.u.s.y.y.y.y.y.y.y.y.h.y.y.",
"y.y.3.^ y.j.k.k.k.l.k.k.k.T I h.y.y.l.y.j.j.y.j.h.y.s.l.y.y.5.5.k.l.6.P 6.l.l.l.l.l.j.y.h.y.I y.y.y.y.y.y.y.y.y.j.h.y.y.y.j.h.y."
};
