/* XPM */
static char *_5a5cac46666498293cb22245a3131d97IWMeNPFyFiaGG5z[] = {
/* columns rows colors chars-per-pixel */
"64 64 202 2 ",
"   c #04040A",
".  c #0B060C",
"X  c #0B080E",
"o  c #060511",
"O  c #0A0713",
"+  c #0C0C15",
"@  c #0C0C1C",
"#  c #100C15",
"$  c #120E1D",
"%  c #13131E",
"&  c #2C181F",
"*  c #21201F",
"=  c #0E0E22",
"-  c #0B052F",
";  c #0F0D29",
":  c #100F24",
">  c #121225",
",  c #191525",
"<  c #161927",
"1  c #1A1926",
"2  c #14132C",
"3  c #19152B",
"4  c #17192D",
"5  c #1A1A2C",
"6  c #070231",
"7  c #0A0336",
"8  c #0E0B36",
"9  c #090239",
"0  c #0E083E",
"q  c #110734",
"w  c #160B33",
"e  c #140A3C",
"r  c #140C3C",
"t  c #161532",
"y  c #191634",
"u  c #161937",
"i  c #1B1A34",
"p  c #17103D",
"a  c #18113E",
"s  c #1C1A3C",
"d  c #2E1A24",
"f  c #261729",
"g  c #25142B",
"h  c #2D1B2B",
"j  c #341D25",
"k  c #311D2B",
"l  c #211C32",
"z  c #261D37",
"x  c #1C252B",
"c  c #1D2B2D",
"v  c #212026",
"b  c #25232C",
"n  c #2E272C",
"m  c #2E2B29",
"M  c #362426",
"N  c #372C26",
"B  c #3F2B26",
"V  c #35212B",
"C  c #3A222E",
"Z  c #342C2A",
"A  c #392E28",
"S  c #22332C",
"D  c #373527",
"F  c #3A322A",
"G  c #36392A",
"H  c #3B3C2C",
"J  c #232334",
"K  c #2A2633",
"L  c #252A37",
"P  c #2C2A34",
"I  c #242B38",
"U  c #352231",
"Y  c #3D2733",
"T  c #352939",
"R  c #283736",
"E  c #373732",
"W  c #402B26",
"Q  c #2B4D2C",
"!  c #3D412D",
"~  c #2E5125",
"^  c #2E532B",
"/  c #305626",
"(  c #315927",
")  c #30572C",
"_  c #325B29",
"`  c #3A5D2D",
"'  c #284A30",
"]  c #23433F",
"[  c #394134",
"{  c #355D32",
"}  c #375D3A",
"|  c #37632C",
" . c #39642D",
".. c #3A6A2E",
"X. c #376436",
"o. c #3A6534",
"O. c #3C6D30",
"+. c #356339",
"@. c #3B633A",
"#. c #3E6C3A",
"$. c #3F7132",
"%. c #5B5739",
"&. c #615C36",
"*. c #436435",
"=. c #456E35",
"-. c #41633B",
";. c #416B3B",
":. c #417434",
">. c #457C36",
",. c #44733A",
"<. c #487539",
"1. c #467C3A",
"2. c #497D3A",
"3. c #6A672F",
"4. c #716B2F",
"5. c #676435",
"6. c #756F34",
"7. c #7B7738",
"8. c #0F0940",
"9. c #120C42",
"0. c #151145",
"q. c #1A1442",
"w. c #1D1A44",
"e. c #171148",
"r. c #1A144B",
"t. c #1B194B",
"y. c #201D46",
"u. c #211E49",
"i. c #201A52",
"p. c #1F3D4A",
"a. c #1E3D50",
"s. c #242246",
"d. c #2E2C42",
"f. c #23214D",
"g. c #272948",
"h. c #2C2B4C",
"j. c #322E43",
"k. c #372B4A",
"l. c #203F46",
"z. c #2A324B",
"x. c #2A3C4D",
"c. c #333145",
"v. c #3A3947",
"b. c #37344C",
"n. c #2C2E5B",
"m. c #2F3551",
"M. c #2E315E",
"N. c #323255",
"B. c #393656",
"V. c #333956",
"C. c #33345C",
"Z. c #3A3A5D",
"A. c #322D67",
"S. c #313561",
"D. c #363A66",
"F. c #3A3B61",
"G. c #37316B",
"H. c #3A356F",
"J. c #393E69",
"K. c #442D4B",
"L. c #45384A",
"P. c #51364D",
"I. c #423B54",
"U. c #563A51",
"Y. c #403C76",
"T. c #234344",
"R. c #274745",
"E. c #2A4A47",
"W. c #23454B",
"Q. c #274C4E",
"!. c #294E4C",
"~. c #29504C",
"^. c #234654",
"/. c #264A51",
"(. c #224458",
"). c #3F4366",
"_. c #3D436D",
"`. c #444244",
"'. c #514B5D",
"]. c #406941",
"[. c #437441",
"{. c #447A41",
"}. c #706C41",
"|. c #767140",
" X c #434362",
".X c #4B4B6C",
"XX c #515175",
"oX c #56567B",
"OX c #645F67",
"+X c #847F34",
"@X c #4C863D",
"#X c #898438",
"$X c #4E4B86",
"%X c #5C5B82",
"&X c #666693",
"*X c #B5B193",
"=X c #C0BC99",
"-X c #CAC79F",
";X c #DCD9A9",
":X c #E8E5AF",
">X c #F6F3B6",
",X c #FAF7B9",
/* pixels */
",X,X,X,X>X*XB.a a a p r 8 7 0 9 9 9 9 9 9 9 9 9 9 9 9 9 9 9 9 9 e.H.i.9 9 9 9 9 9 8.e.8.9 9 9 9 r.8.9 9 9 9 9 6 9 9 9 9 9 9 9 9 ",
",X,X,X,X=XI.a a a p p r 0 9 9 0 9 8.9 9 9 9 9 9 9 9 9 6 9 9 9 9 9.e.8.9 9 9 9 9 9 r.G.e.9 9 9 8.$X8.9 9 9 9 9 9 9 9 9 9 9 9 9 9 ",
",X,X,X,Xb.q.p p a a r e 7 9 7 8.i.8.9 9 9 9 9 9 9 9 9 9 9 9 9 9 i.9.8.9 9 9 9 9 9 8.9.8.9 9 9 9 r.8.9 9 9 9 9 6 8.e.8.9 9 9 9 9 ",
",X,X>X;Xa p a p p r r 7 0 9 9 9.H.e.8.9.9 9 9 9 9 9 9 9 9 9 9 8.H.e.9 9 9 9 9 9 9 9 9 9 9 9 9 9 9 9 9 9 9 9 9 9 9.A.e.9 9 9 9 9 ",
">X:X-X'.a a p q.r r e 7 9 9 9 0 r.8.e.$X8.9 6 9 9 9 9.8.9 9 9 8.r.8.9 9 9 9.8.9 9 9 9 9 9 9 6 9 9 9 9 9 9 9 9 9 8.e.8.9 9 9 9 6 ",
":XOXI.q.a a p p r 0 7 7 9 9 9 9 9 9 8.i.8.9 9 9 9 r.H.9.9 9 9 9 9 9 9 9 9.H.r.9 9 9 9 9 8.9 9 9 9 9 0 8.9 9 9 9 9 9 9 9 9 9 9 9 ",
"a a a a p p r e 8 9 9 9 9 9 9 9 9 9 6 9 9 9 9 9 9 8.8.9 9 9 9 9 9 9 9 9 9 8.8.9 9 9 9 8.$Xe.9 9 9 9 e.$X8.9 9 9 9 9 9 9 9 9 9 9 ",
"u.w.q.r r r r 8 9 9 9 9 e e 9 9 9 9 9 9 9 9 9 9 9 9 9 9 9 9 9 9 9 9 9 9 9 9 9 9 9 9 9 8.9.8.9 9 9 9 8.8.0 9 9 9 9 9 9 9 9 9 9 9 ",
"D.C.f.y.w.w.0.0.9 9 9 9 P.K.e 9 9 9 9 9 9 9 9 9 9 9 9 e e 9 9 9 9 9 8.r.0 9 9 e 9 9 9 9 9 9 9 9 9 9 9 9 9 9 9 6 9 8.e.8.9 9 9 9 ",
"f.f.C.D.S.S.S.S.9.9.8.9.U.L.q.9.9.9.8.9.9 9 9 9 9 9 e K.K.0 9 6 9 9 e.H.8.9 e K.9 9 9 9 9 9 9 9 9 9 9 9 9 9 9 9 9 0.A.9.9 9 9 9 ",
"r 8 0.0.0.0.0.9.D.D.D.D.W Y Z.D.D.D.D.D.0 9 9 9 0 0 e.P.P.q.0 0 8.8.9.i.0 9 e P.9 9 9 9 9 9 9 9 9 9 9 9 8.9.0 9 9 8.e.8.9 9 9 9 ",
"0 7 9 9 9 9 9 9 e.0.e.0.k k a 0.0.0.0.0._._._._.J.J.H.W W Z._.J.J.S.8.9 9 9 q C 9 9 9 9 9 9 9 9 9 9 0 K.e.H.r.9 9 9 9 9 9 9 9 9 ",
"_._._._._.D.t.0.q.9.9.r j h a 9.9.9.9.0   >           j M 1 .   9 8.S._._._.F.V _._._._.J.r.8.9.9.9.q.P.r.0.9.9 9 q e 9 9 9 0 U.",
"0 0 0 0 8.0.S.D.D.D.).Y.j Y B.J.D.)._._.< %XJ @ $ + # j Y oXJ + 9.8.0 8 0 8.e k 0 7 0 0 9.C.D.).D.J.Z.C J.S.r.r 9 e k.0 9 9 8 P.",
"9 9 9 9 9 9 8.9.9.9.e U j h 9.9.9.9.9.9.V.).V.m.b.N.b.j V ).V.b.S.M.t.0.0.0.u h 0.0.9.0.0.9.9.0.9.8.a j 9.0.n.S.9.y.K.q.0.9.q.k ",
"9 6 6 6 6 6 6 6 6 6 q j j w 7 9 9 9 9 9 % % < I % 1 U j & < % > 0.t.n.C.M.C.m.V S.S.S.S.M.0.9.8.9.e w U 9.9.e.e.S.N.T C.S.S.C.k ",
"6 o o o o @ o o   o O d j 7 9 9 7 7 9 9   + % &X  . & j X #     = = < 4 < 4 3 j 9.0.0.0.r.M.D.D.D.C.T Z.D.M.0.8.r.w.z y.r.t.y.k ",
"6 o     + XX<       . j j - 7 7 6 7 7 7 + XXl J   . & j # XX1   @ @ @ @ @ @ $ j 9 9 6 7 9 0.e.e.e.q.f q.e.t.S._.D.Z.T F.J.J.F.j ",
"6 y oX+       5     X j j $ @ @ @ @ @ @           X d j . O %   @ @ @ @ @ @ $ j P i u P 6 9 6 9 9 q g 7 9 9 9 9 9 q g 7 9 q h y ",
"@   +     , 3 &X  % + & j $ @ @ @ @ = @   . %     , j j 2 3 .X+ @ @ = > : ; $ j 7.K K 7.9 9 9 9 9 w g 7 6 9 9 9 9 t b i u i Z ;.",
"+       +  X1 1 +  Xg j j $ @ 2 t t 2 @   %  X+ o 3 k j 4 O %   @ = w.c.y.w.> j P i y P 6 9 9 9 9 q g 7 9 7 7 u u Z -.[.,.@.H ].",
"@         < X     , + j j $ = t y J y @   . < .   3 d j t @   O @ = d.7.f.y.3 j i i J y 7 7 7 9 9 w g 7 u 4 c +.} H <.@X@X,.[ (.",
"@   +               . d d $ = t J %.n @           3 k j y s y.y.@ ; y.v.f.g.1 j y P &.J ; ; ; 6 9 g y 8 #.,.,.@X2.! <.@X@X@X2.[.",
"@ 4 XX+     = 2 2 > & j j $ @ 4 i P 3 +           3 j j u u.f.f.> 2 u.f.h.5.Z k y i P y ; 2 ; 9 7 V } #.@X@X@X@X2.! <.@X@X@X@X@X",
"+           b #Xy i j j   @ * #Xy y 4 : O + v > > k j k y v.}.h.> 2 f.b.f.s.h , J 5.P I x x S 1.2.! <.@X@X@X@X@X2.H ;.{././././.",
"@         o < J P l j j   @ = b y y i w.s.c.5.1 > d k Z i f.h.b.2 2 d.#Xf.j.k > J R R ,.>.>.1.@X2.H <.@X@X@X@X@X1.H E.~.o.X.X.X.",
"@         o 2 y 6.K j j w.= = t i K i f.v.g.b 2 Z j B 6.u u.b.|.; 2 u.b.h.&.F b ,.,.1.@X@X@X@X@X2.! <.@X>.$.$.$.:.o.X.X...$.$...",
"@       o O 2 y E l k j c., ; t i %.P f.|.g.2 > 4.W M E i f.f.v.> < g.z.m.`.F o.@X@X@X@X@X@X@X@X<.! :.$.$.>.@X>.1.O.....$.....( ",
"@   o s w.s s J y y j j 7.b ; 4 K K i f.`.g.2 > m j j y y u.f.z.< c @.,.[.-.H 2.@X@X@X@X@X@X@X@XD ` ....O.$.$.$.$.O...( ....| ^ ",
"= @ > f.f.s.L +Xy g k j v.3 2 t #XK s t.#Xc.2 : > d k 5 y f.h.].#.;.@X@X@X,.! 2.@X@X@X@X@X@X@X@XM =...:.......$.O.....| ~ R.T.l.",
"1 3.H #Xf.f.s y t y k j f.2 ; t y t y f.f.g.b x 2.A A 2.@X@X@X@X@X@X@X@X@X<.! 2.@X>.$.$.@XO.O.O.M { o.X.+.!.^.W.l.l.p.p.] Q ~ ~ ",
"> 1 3 h.f.c.i y y g j j f.< > t y u I z.x.[.1.1.2.A A 2.@X@X@X@X@X@X@X>.@X<.! ,.$...$.2.O.O.O.O.Z E.~.~.~.+.) Q ~ ~ ~ ~ Q ~ ~ ~ ",
"m , t u.n.&.K t y h j k f.x c L I R ;.{.2.@X@X@X=.N A 2.@X@X@X@X@X@X@X:.$. .D *.$...$.$...O.O.O. .X.X.X.X...| ~ ~ ~ ~ ~ Q Q Q Q ",
"3.5 2 u.f.v.I I J V V j.z.@.=.,.#.,.@X@X@X@X@X@XF M D 2.@X@X@X@X@X@X@X>.>. .D ....O...$.$.O.O.O.O.......X.X.) ~ Q Q Q Q ] ] ] T.",
"m x x g.z.].1.,.#.N Z ;.,.@X@X@X@X@X@X@X@X@X@X@Xj B *.@X@X@X@X@X@X$.$.$.:. .G  .O.O.O.O.X.X.O.X.X.X.) ^ Q.T.l.R ] ] ] ] Q ' Q ^ ",
"< { ;.;.[.@X@X@X2.A A 2.@X@X@X@X@X@X@X@X@X@X@X@Xj F <.@X@X@X:.:.$...$..... .D  ...$.O.O.!.!./.!.!.!.W.Q.Q Q ' Q ' Q ' ' ~ ~ ~ ~ ",
"@X@X@X@X@X@X@X@X2.A A 2.@X@X@X@X@X@X@X@X@X@X@X@Xj F <.@X@X....$.$.........| G Q././././.$...$.O...| ....~ ~ ~ ~ ~ ~ ~ ~ ~ ~ ~ ~ ",
"@X@X@X@X@X@X@X@X2.A A 2.@X@X@X@X@X@X@X@X@X@X@X@Xj F =.....$.$.....O.$.$.=.....o.X.O.O.X...| ....~ ~ ~ ~ ~ ~ ~ ~ ~ ~ ~ ~ ~ ~ ~ ~ ",
"@X@X@X@X@X@X@X@X2.A A 2.@X@X@X@X@X@X@X@X@X@X@X@Xj N ` ....O...$.$...O.O...$.....O.O.O.O.( ~ ~ ~ ~ ~ ~ ~ ~ ~ ~ ~ ~ ~ ~ ~ ~ ( ....",
"@X@X@X@X@X@X@X@X=.N A 2.@X@X@X@X@X@X@X@X@X2.@X@XM N ` =.$...$.....$.O...$...$...O.O.....| ~ ~ ~ ~ ~ ~ ~ ~ ~ ~ ~ ~ ~ ~ ~ ~ | ....",
"@X@X@X@X@X@X@X@XB M D 2.@X@X@X@X@X@X@X@X@X$.$.$.j A ` ..:...$...O.O.$...O.O.O.O.O.....( ~ | ~ ~ ~ ~ ~ ~ ~ ~ ~ ~ ~ ~ ~ ~ ^ ) X...",
"@X@X@X@X@X@X@X@Xj A *.@X@X@X@X@X@X@X@X@X$...O.$.j A ` ..$.....$.O.O.O.O.O.O.O.O.O...( ~ ~ ~ ~ ~ ~ ~ ~ ~ ~ ~ ~ ~ | ~ ~ | | !.Q.Q.",
"@X@X@X@X@X@X@X@Xj F <.@X@X@X@X@X@X:.>.$.O.O. .M j D  .......$...O.O.O.O...O.....| | ~ ~ ~ Q Q Q Q Q Q Q ' l.a.p.p.p.a.(././././.",
"@X@X@X@X@X@X@X@Xj A =.@X@X@X@X@X$.O.O.O.O.O. .M M ` O.$.$.....$.O.O...$...X.+.~ ^ ^ Q ~ Q T.p.p.p.l.p.p.R.l.R.l.W.W.W./.X...X.X.",
"@X@X@X@X@X@X@X@Xj B  .@X@X2.:.:.O.O.O.O.O.O.` M M ` O...O.X.X.X.o.X.X.X.+.T.T.p.p.l.l.l.] T.l.l.l.l.l.l.| X.{ X.X...X.X.O.O.O.O.",
"@X@X@X@X@X@X@X@Xj N ` :.$.$...O.O.O.O.O.O.O. .M M { X.X.X.~.Q.Q.W.R.T.T.W.l.p.p.p.p.p.l.Q Q Q Q Q Q ' Q ( ( _ ....O.$.O.$.O.O.O.",
"@X@X@X@X@X@X@X@Xj A | $.....O.O.O.O.O.O.O.O.` M Z R./././.^./.^.p.p.p.p.l.' Q Q Q Q Q Q ~ ~ ~ ~ ~ ~ / ........O.O.O.O.O.O.O.O.O.",
"@X@X@X$.$.$.$.$.j A ` ....$.O.O.O.O.O.O.O.O. .M V a.(.(.(.+.X.| Q Q Q Q Q ~ ~ ~ ~ ~ ~ ~ ~ ~ _ ~ ~ ~ ~ ..O.O...O.O.O.O.O.O.O.O.O.",
"O.$.@X@X@X.... .j N ` ......:...$.....O.O.O...$...$...$...$...( ~ ~ ~ ~ ~ ~ ~ ~ ~ ~ ~ ~ ~ / ..O./ | _ / O.O.O.O.O.O.$.......$...",
"O.O.....@X$.| N M A  ...:...$.....$.O.O.O.O.$.O.$...O.......| | ~ ~ ~ ~ ~ ~ ~ ~ ~ ~ ~ ~ ~ / ..O.........O.O.O.O.O.O...$.O.$...$.",
"O.O.....$... .M M ` ......$.....O.O.O.O.O.O.$...........~ / ~ ~ ~ ~ ~ ~ ~ ~ ~ ~ ~ ~ ~ ~ ~ / ..O.O.O...O.O.O.O.O.O.O.O...O.O.$...",
"O.O.O.O...=.` M M ` ..=.$.....:.O.O.O.O.O.O.$...$....._ / ~ ~ ~ ~ ~ ~ ~ ~ ~ ~ ~ ~ ~ ~ ~ / | ..O.O.O.O.O.O.O.O.O.O.O.$.$.O.O.O...",
"O.O.O.O.O.O. .M M  .O.......$...O.O.O.O.O.O.O.O...( ( | | ~ ~ ~ ~ ~ ~ ~ ~ ~ ~ ~ ~ ~ ~ ~ / ....O.O.O.O.O.O.O.O.O.O.O.....O.O.O.O.",
"O.O.O.$.O.O. .M M  .O.$.$.....$.O.O.O.O.O.O.O.O./ ~ ~ / ~ ~ ~ ~ ~ ~ ~ ~ ~ ~ ~ ~ ~ ~ | | / ..O.O.O.O.O.O.O.O.O.O.O.O.O.$.O.O.$.O.",
"O.O.O.O.O.O.| M M  ...O...$.$...O.O.O.O.O...| ..~ ~ ~ ~ ~ ~ ~ ~ ~ ~ ~ ~ / | ../ / ....O.O.O.O.O.O.O.O.O.O.O.O.O.O.O...O...$.$...",
"O.O.O.O.O.O.| M M ` $...$...$...| ....| | / ~ ~ ~ ~ ~ ~ ~ ~ ~ ~ ~ ~ ~ ~ / / | ......O.O.O.O.O.O.O.O.O.O.O.O.O.O.O.O.$...$.....$.",
"......$...=. .M M o...$...$...O._ ( / / ~ ~ ~ ~ ~ ~ ~ ~ ~ ~ ~ ~ ~ ~ ~ ~ ~ / | O.O.O.O.O.O.O.O.O.O.O.O.O.O.O.O.O.O.O.....O.O.O.O.",
"$.:....... .` M M ` ....$...O.O.| _ / ~ ~ ~ ~ ~ ~ ~ ~ ~ ~ ~ ~ ~ ~ ~ ~ ~ ~ / | O.O.O.O.O.O.O.O.O.O.O.O.O.O.O.O.O.$.$.$...O.O.O.O.",
"..$...$... .D M N  .O.=.......$./ ~ ~ ~ ~ ~ ~ ~ ~ ~ ~ ~ ~ ~ ~ ~ ~ ~ ~ | | ( ( O.O.O.O.O.O.O.O.O.O.O.O.O.O.O.O.O.....$.$.$...O.O.",
"......:...` B j ` ..O...( _ ...._ ~ ~ ~ ~ ~ ~ ~ ~ ~ ~ ~ ~ ~ ~ ~ ~ ~ ~ | O.| | O.O.O.O.O.O.O.O.O.O.O.O.O.O.O.O.$...$...O...$.$.O.",
"$...$.....| N j O.O......./ ~ ~ ~ ~ ~ ~ ~ ~ ~ ~ ~ ~ ~ ~ ~ ~ ~ / ( | ( / O.$.O.O.$.O.O.$.O.$.O.O.O.O.O.O.$.O.O.O.O.X.O.X.....X...",
"..$...$.=.` N j O.......| / ~ ~ ~ ~ ~ ~ ~ ~ ~ ~ ~ ~ ~ ~ ~ ~ / | ..........X.X.X.X.+.X.X.X.+.+.+.X.X.X.X.+.+.X.X././././.!.Q././.",
"..$...$... .A j ..../ / / ~ ~ ~ ~ Q Q Q Q Q Q Q Q Q ' Q Q ^ | X.X.X.X.X./.Q././././././.Q././.~././.~./././././.(.(././././././.",
"$...$.....` A j ../ ~ ~ ~ ~ ~ ~ p.p.p.p.p.p.p.p.p.p.p.p.p.p.a.^.^.^.^.^.(.(.(.(.(.(.^.(.(.(.(.(.(.(.(.(.(.(.(.(.(./.+.X.O.X...X."
};
