/* XPM */
static char *cF9hXzlfcGhvdG8tcmVzaXplci5ydQ__[] = {
/* columns rows colors chars-per-pixel */
"64 64 187 2 ",
"   c #030303",
".  c #0B0503",
"X  c #090909",
"o  c #110E0E",
"O  c #180C08",
"+  c #131211",
"@  c #1B1412",
"#  c #1E1D1D",
"$  c #28150B",
"%  c #29150C",
"&  c #3D1A0B",
"*  c #261611",
"=  c #281711",
"-  c #211B17",
";  c #2A1A16",
":  c #241B1A",
">  c #22201F",
",  c #262221",
"<  c #2D2826",
"1  c #342520",
"2  c #332D2C",
"3  c #37302C",
"4  c #3A3129",
"5  c gray20",
"6  c #3E3734",
"7  c #3B3B3A",
"8  c #4C230D",
"9  c #52240F",
"0  c #552E1E",
"q  c #672E14",
"w  c #663510",
"e  c #6C3315",
"r  c #693916",
"t  c #65321B",
"y  c #773517",
"u  c #763619",
"i  c #783618",
"p  c #77391D",
"a  c #7A3A1D",
"s  c #432B24",
"d  c #4F322B",
"f  c #5C3221",
"g  c #53342C",
"h  c #443A34",
"j  c #493833",
"k  c #433C39",
"l  c #5E3D34",
"z  c #533F3A",
"x  c #643A26",
"c  c #6E3A26",
"v  c #663E2E",
"b  c #6D3D2C",
"n  c #733A23",
"m  c #743F2A",
"M  c #693F31",
"N  c #734626",
"B  c #7F4124",
"V  c #764A2B",
"C  c #7B482E",
"Z  c #664137",
"A  c #6D4539",
"S  c #6F483D",
"D  c #744C32",
"F  c #7A4D36",
"G  c #72473B",
"H  c #73483C",
"J  c #7B4D3C",
"K  c #7D5438",
"L  c #484746",
"P  c #534947",
"I  c #584D4A",
"U  c #5D514F",
"Y  c #5A5654",
"T  c #744F45",
"R  c #784E42",
"E  c #7B5145",
"W  c #7D564B",
"Q  c #7F594F",
"!  c #615653",
"~  c #6D605D",
"^  c #70625F",
"/  c #6B6A69",
"(  c #746662",
")  c #766864",
"_  c #7A6A67",
"`  c #7C6D69",
"'  c #797776",
"]  c #797877",
"[  c #83492C",
"{  c #844C32",
"}  c #885034",
"|  c #84553F",
" . c #845D3E",
".. c #8A593E",
"X. c #815642",
"o. c #845C44",
"O. c #8E5D42",
"+. c #81574C",
"@. c #825A4D",
"#. c #8D5E4E",
"$. c #835C51",
"%. c #885F54",
"&. c #8A6547",
"*. c #87624B",
"=. c #8C664D",
"-. c #926046",
";. c #95654B",
":. c #96694E",
">. c #856155",
",. c #896353",
"<. c #8C6B54",
"1. c #8D665B",
"2. c #8D6A5D",
"3. c #976C52",
"4. c #916A5A",
"5. c #9E6D59",
"6. c #947255",
"7. c #9A7156",
"8. c #9D745A",
"9. c #836E69",
"0. c #926B61",
"q. c #80706D",
"w. c #957065",
"e. c #9E7C63",
"r. c #987368",
"t. c #997369",
"y. c #9D7C6D",
"u. c #877672",
"i. c #8E7D78",
"p. c #9D7B73",
"a. c #907D78",
"s. c #A17D64",
"d. c #A17C72",
"f. c #9E8066",
"g. c #92806E",
"h. c #9F806D",
"j. c #95827D",
"k. c #A08367",
"l. c #A38374",
"z. c #A58B74",
"x. c #A5837A",
"c. c #A98E7A",
"v. c #B48C7D",
"b. c #AB947C",
"n. c #AE987F",
"m. c #B0967E",
"M. c #838281",
"N. c #9C8782",
"B. c #908F8E",
"V. c #979593",
"C. c #A68D86",
"Z. c #AE9780",
"A. c #AF9981",
"S. c #A9948F",
"D. c #B49482",
"F. c #B89183",
"G. c #B19B85",
"H. c #B39C85",
"J. c #B49D85",
"K. c #B49E87",
"L. c #B59E87",
"P. c #B7978F",
"I. c #B8978F",
"U. c #B69F88",
"Y. c #AC9691",
"T. c #AF9993",
"R. c #B19A94",
"E. c #BC9D94",
"W. c #B59E98",
"Q. c #B6A089",
"!. c #B7A18A",
"~. c #BBA392",
"^. c #BDA29B",
"/. c #A5A3A2",
"(. c #AAA8A7",
"). c #BCBAB9",
"_. c #C3A49C",
"`. c #C3AA9B",
"'. c #C9A99F",
"]. c #C3AAA3",
"[. c #CAAEA4",
"{. c #CAAFA9",
"}. c #CAB0A5",
"|. c #CEB4AD",
" X c #D1B6AF",
".X c #D1B7B0",
"XX c #D5BAB3",
/* pixels */
"G.G.G.G.G.G.G.G.G.G.G.G.G.G.G.G.n.J.n.Q.n.Q.G.G.G.G.G.G.H.A.K.A.K.A.K.A.G.G.G.G.H.G.G.G.G.G.G.G.G.G.G.G.G.G.G.G.G.G.G.G.G.G.G.G.",
"!.!.!.!.!.!.!.!.!.!.!.!.!.!.!.!.!.!.!.!.!.!.!.!.!.!.!.!.!.!.!.!.!.!.!.!.!.!.!.!.!.!.!.!.!.!.!.!.!.!.!.!.!.!.!.!.!.!.!.!.!.!.!.!.",
"!.!.!.!.!.!.!.!.!.!.!.!.!.!.!.!.!.!.!.!.!.!.!.!.!.!.!.!.!.!.!.!.!.!.!.!.!.!.!.!.!.!.!.!.!.!.!.!.!.!.!.!.!.!.!.!.!.!.!.!.!.!.!.!.",
"!.!.!.!.!.!.!.!.!.!.!.!.!.!.!.!.!.!.!.!.!.!.!.!.!.!.!.!.!.!.!.!.!.!.!.!.!.!.!.!.!.!.!.!.!.!.!.!.!.!.!.!.!.!.!.!.!.!.!.!.!.!.!.!.",
"!.!.!.!.!.!.!.!.!.!.!.!.!.!.!.!.!.!.!.!.!.!.!.!.!.!.!.!.!.!.!.!.!.!.!.!.!.!.!.!.!.!.!.!.!.!.!.!.!.!.!.!.!.!.!.!.!.!.!.!.!.!.!.!.",
"!.!.!.!.!.!.!.!.!.!.!.!.!.!.!.!.!.!.!.!.!.!.!.!.!.!.!.!.!.!.!.!.!.!.!.!.!.!.!.!.!.!.!.!.!.!.!.!.!.!.!.!.!.!.!.!.!.!.!.!.!.!.!.!.",
"!.!.!.!.!.!.!.!.!.!.!.!.!.!.!.!.!.!.Q.H.Q.J.Q.Q.!.!.!.!.!.!.!.!.!.!.!.!.!.!.!.!.!.!.!.!.!.!.!.!.!.!.!.!.!.!.!.!.!.!.!.!.!.!.!.!.",
"!.!.!.!.!.!.!.!.!.!.!.!.!.!.!.!.Q.H.6. . .7.Q.Q.!.!.!.!.!.!.!.!.!.!.!.!.!.!.!.!.!.!.!.H.G.G.G.U.!.!.!.!.!.!.!.!.!.!.!.!.!.!.!.!.",
"!.!.!.!.!.!.!.!.!.!.!.!.!.!.!.!.Q.f.V V V  .Q.Q.!.!.!.!.!.!.!.!.!.!.!.!.!.!.!.!.!.!.!.8.:.=.e.U.!.!.!.!.!.!.!.!.!.!.!.!.!.!.!.!.",
"!.!.!.!.!.!.!.!.!.!.!.!.!.!.!.K.k.F Z +.<.W f.J.!.!.!.!.!.!.!.!.!.!.!.!.!.!.!.!.!.!.e.[ y u C y.H.!.!.!.!.!.!.!.!.!.!.!.!.!.!.!.",
"!.!.!.!.!.!.!.!.!.!.!.!.!.U.!.G.&.x T 2.r.4. .f.U.U.!.!.!.!.!.!.!.!.!.!.!.!.!.!.K.f.[ n c c t ,.H.!.!.!.!.!.!.!.!.!.!.!.!.!.!.!.",
"!.!.!.!.!.!.!.!.!.!.!.!.U.!.!.K.<.Z @.2.1.r.| &.U.!.!.!.!.!.U.!.!.!.!.!.!.!.!.!.s.{ c J W W R o.k.!.!.!.!.!.!.!.!.!.!.!.!.!.!.!.",
"!.!.!.!.!.!.!.!.!.!.!.!.!.!.!.K.2.T 2.+.+.r.X.V 7.K.K.K.K.K.K.K.!.K.U.!.!.!.!.U...u b %.r.r.r.J *.!.!.!.!.!.!.!.!.!.!.!.!.!.!.!.",
"!.!.!.!.!.!.!.!.!.!.!.!.!.!.!.K.2.+.r.>.E 1.=.N N 6.7.7.5.5.7.7.7.7.7.D.U.K.!.8.[ p H 0.1.%.1.J *.U.!.!.!.!.!.!.!.!.!.!.!.!.!.!.",
"!.!.!.!.!.!.!.!.!.!.!.!.!.!.U.K.<.W r.@.G E 4.X.e e y y y y y y u u u :.7.7.Z.[ u c >.1.E G $.J *.!.!.!.!.!.!.!.!.!.!.!.!.!.!.!.",
"!.!.!.!.!.!.!.!.!.!.!.!.!.!.!.f.| X.r.+.b m F [ i y y y y y y y u u u u u a :.B n H 1.+.R G $.R J s.!.!.!.!.!.!.!.!.!.!.!.!.!.!.",
"!.!.!.!.!.!.!.!.!.!.!.!.!.!.!.&.r K 2.C e e y y y i y y y y y y y i y y y i a y b +.1.+.H R ,.X.t K !.!.!.!.!.!.!.!.!.!.!.!.!.!.",
"!.!.!.!.!.!.!.!.!.!.!.!.!.!.!. .w F C u y y y y y y y y y y y y y y y y y y y i b W +.M M +.r.X.t F !.!.!.!.!.!.!.!.!.!.!.!.!.!.",
"!.!.!.!.!.!.!.!.!.!.!.!.!.!.!. .w w y y y y y y y y y i y y y i y y i y y i y y n M M x M %.r.| t F !.!.!.!.!.!.!.!.!.!.!.K.U.!.",
"!.!.!.!.!.!.!.!.!.!.!.!.!.!.g.D w r y y y i y y y i y i y y y y i y y y y y y y u c f M +.%.r.| e J !.!.!.!.!.!.!.!.!.!.U.K.n.!.",
"!.K.!.!.!.!.!.!.!.!.!.!.!.g.# $ 8 9 9 9 9 9 9 9 9 9 9 9 9 9 9 9 9 9 9 9 9 9 9 9 q t q R #.#.#.{ e J !.!.!.!.!.!.!.!.!.!.K.b.K.!.",
"!.!.U.K.!.!.!.!.!.!.!.!.A.h   , k k - , k < . O * * * * * * * . . . k k 6 @ . . & q u i a a a n N *.!.!.!.!.!.!.!.!.!.!.K.b.!.!.",
"!.!.K.b.K.!.!.!.!.K.U.!.n.3   I V.(.L L B./   = d s s 1 s s s .   X u./.V.5   > * & e y y y y m ,.b.!.!.!.!.!.!.!.!.!.G.b.G.!.!.",
"!.!.K.b.b.U.!.!.!.K.!.!.n.3   : ] ).L : Y ]   ; d * @ @ @ * d o   X > /./.7   M.5 . 9 y y i i m 2.!.!.!.!.!.!.!.!.K.!.b.b.K.!.!.",
"!.!.!.U.b.b.G.!.!.!.!.K.b.4 X X   X X   X X o @ 1 H S Z l l o X X X   X X X X X     8 y y u m G <.n.!.!.!.!.!.!.!.G.b.b.H.!.!.!.",
"!.!.!.U.b.b.b.K.K.!.!.b...% X X X X X X X X z 0.$.H G A T M g o X X X X X X X   X . 0 u u n G G H ,.!.!.!.!.!.Q.G.b.b.Q.Q.!.!.!.",
"!.!.!.!.K.b.b.b.K.!.!.D...% X X X X X X + j 1.Q S H H G S M l 1 o   X X X   X X X o q.5.B n G G H >.!.!.!.!.!.G.b.b.b.!.!.!.!.!.",
"!.!.!.!.U.A.b.b.G.!.!.n...1 X X X X X @ k >.Q H G H G H G A T _ , X X X X X X X X : j._.5.F R G H ,.!.!.!.!.n.b.b.b.K.K.!.!.!.!.",
"!.!.!.!.!.U.b.b.b.K.!.m.O.w.2 + + + + Y j.>.A Z A A G G G G W N.5 X X   X X X   o U ].XX'.l.+.H H >.!.K.!.G.b.b.b.b.H.!.!.!.!.!.",
"!.!.!.!.!.!.K.b.b.b.b.z...F.~.Y.Y.Y.T.^.i.> - # - 1 G G G G +.].N., X X X X X X + ` XXXXXXI.$.H H >.b.b.b.b.b.b.b.H.!.!.!.!.!.!.",
"!.!.!.!.U.!.U.G.b.b.z.O.v. XXXXXXXXXXX~ @ + + + + + 1 9.D.@.{..X XW.+ + + + + Y.|. XXXXXXXXXI.$.H *.b.b.b.b.b.n.H.!.!.!.!.!.!.!.",
"U.U.K.K.b.b.b.b.b.b.z.O.v.XXXXXXXXXXXX~ X + + + o X k x.p.E.r.{.XXXXW.W.W.W.W.|.XXXXXXXXXXXXI.w.0.w.b.b.b.b.H.H.!.!.!.!.!.!.!.!.",
"b.b.n.b.b.b.n.n.J.K.m.-.v.XXXXXXXXXXXX) + X + X X X I ^._. X^..XXXXXXXXXXXXXXXXXXXXXXXXXXXXXI.t.t.p.b.n.G.K.!.!.!.!.!.!.!.!.!.!.",
"b.b.b.b.b.J.n.Q.!.!.m.-.F.XXXXXXXXXXXXS.P X X X X , C.|.XXXXXXXXXXXXXXXXXXXXXXXXXXXXXXXXXXXXI.t.t.y.b.K.!.!.!.!.!.!.!.!.!.!.!.!.",
"n.H.m.H.n.!.!.!.!.!.3.l.'.XXXXXXXXXXXXj.5 X X X 2 N..XXXXXXXXXXXXXXXXXXXXXXXXXXXXXXXXXXXXXXXI.t.r.y.b.n.!.!.!.!.!.!.!.!.!.!.!.!.",
"Q.Q.!.!.!.!.!.!.!.!.} F.XXXXXXXXXXXXXX~ k i.i.i.C..XXXXXXXXXXXXXXXXXXXXXXXXXXXXXXXXXXXXXXX.XI.t.r.y.b.b.A.b.n.!.!.!.!.!.!.!.!.!.",
"Q.!.!.!.Q.Q.Q.Q.K.!.} F.XXXXXXXXXXXXXX].` < 2 ( {.|.|.|..X|.|.|. XXXXXXXXXXXXXXXXXXXXXXXXXE.p.t.r.k.b.b.K.G.b.b.K.!.!.K.!.!.!.!.",
"!.!.!.!.Q.Q.Q.n.m.m.{ F.XXXXXXXXXXXXXXXXu.o o 2 U U Y Y ! Y ! ! ) {.XXXXXXXXXXXXXXXXXXXXXXE.t.t.r.p.b.A.U.U.G.G.!.!.K.G.Z.K.!.!.",
"Q.!.!.!.Q.n.m.b.b.b.{ F.XXXXXXXXXXXXXXXXR.P 6 ~ ) ) _ _ _ _ ` ` a.{.XXXXXXXXXXXXXXXXXXXX.XE.t.t.r.p.b.D.U.!.!.!.!.!.K.n.G.K.b.G.",
"!.!.Q.Q.n.b.c.c.b.b.{ F.XXXXXXXXXXXXXXXXXXR.^ ~ ~ ~ ~ ~ ~ ) XXXXXXXXXXXXXXXXXXXXXXXXXXXX_.x.t.t.r.k.b.b.U.!.!.!.!.!.!.!.!.K.K.A.",
"!.!.Q.n.b.b.b.b.n.b.[ F.XXXXXXXXXXXXXXXXXXXXS.` ) ) ) ( ) ` .XXXXXXXXXXXXXXXXXXXXXXXXX^.x.t.t.t.y.l.b.G.!.!.!.!.!.!.!.!.!.!.!.K.",
"Q.Q.n.b.b.b.n.H.Q.b.6.E.XXXXXXXXXXXXXXXXXXXX.X|..X X.X|.|..XXXXXXXXXXXXXXXXXXXXXXXXX_.x.t.t.t.y.z.b.b.!.!.!.!.!.!.!.!.!.!.!.!.!.",
"Q.b.b.b.n.G.Q.!.Q.b.n.'.XXXXXXXXXXXXXXXXXXXXXXXXXXXXXXXXXXXXXXXXXXXXXXXXXXXXXXXX XE.p.t.t.t.e.z.c.b.b.!.!.!.!.!.!.!.!.!.!.!.!.!.",
"n.b.b.m.Q.!.!.!.K.G.b.~.}.XXXXXXXXXXXXXXXXXX.XXXXXXXXXXXXXXXXXXXXXXXXXXXXXXX.XE.I.x.t.t.t.y.h.b.b.b.n.!.!.!.!.!.!.!.!.!.!.!.!.!.",
"b.n.G.Q.!.!.!.!.!.!.b.b.!.|.XXXXXXXX}.^.`.[. XXXXXXXXXXXXXXXXXXXXXXXXXXX.X^.E.y.t.y.y.h.h.z.z.b.b.b.U.!.!.!.!.!.!.!.!.!.!.!.!.!.",
"n.Q.Q.Q.!.!.!.!.!.!.n.b.b.~.`.`.`.`.!.b.b.K.[.XXXXXXXXXXXXXXXXXXXXXX`.`.^.b.h.y.p.z.b.b.b.c.b.b.b.b.K.U.!.!.!.!.!.!.!.!.!.!.!.!.",
"Q.Q.!.!.!.!.!.!.!.!.!.b.G.G.G.b.n.b.b.c.b.b.U.`.].`.`.`.`.`.`.`.^.].A.b.b.b.c.b.b.b.b.b.b.n.b.b.b.b.b.Z.H.!.!.!.!.!.!.!.!.!.!.!.",
"!.Q.!.!.!.!.!.!.!.!.!.Q.K.K.K.A.n.b.n.b.b.b.Z.A.A.A.A.A.A.A.A.A.D.A.b.Z.b.b.n.n.b.b.b.b.A.A.b.b.b.b.b.b.b.H.K.!.!.!.!.!.!.!.!.!.",
"Q.Q.!.!.!.!.!.!.Q.Q.n.G.G.n.b.b.b.K.!.!.!.!.!.!.!.!.!.!.!.!.!.!.!.!.!.!.!.!.!.!.!.!.!.!.!.K.K.b.b.z.b.b.b.b.b.n.!.K.!.U.!.!.!.!.",
"Q.Q.!.!.!.!.!.!.Q.K.b.b.b.b.b.n.A.!.!.!.!.!.!.!.!.!.!.!.!.!.!.!.!.!.!.!.!.!.!.!.!.!.!.!.!.!.!.Q.b.b.b.b.b.b.b.n.n.n.A.K.K.!.!.!.",
"!.!.!.!.!.!.Q.Q.K.n.b.n.b.n.J.!.!.!.!.!.!.!.!.!.!.!.!.!.!.!.!.!.!.!.!.!.!.!.!.!.!.!.!.!.!.!.!.Q.G.b.z.b.b.!.K.!.!.n.b.K.!.!.!.!.",
"!.!.!.!.!.!.!.Q.m.Q.Q.Q.Q.Q.Q.!.!.!.!.!.!.!.!.!.!.!.!.!.!.!.!.!.!.!.!.!.!.!.!.!.!.!.!.!.!.!.!.!.K.K.b.b.b.b.b.n.!.K.!.n.Q.!.!.!.",
"!.!.!.!.!.!.!.Q.Q.Q.!.!.!.!.!.!.!.!.!.!.!.!.!.!.!.!.!.!.!.!.!.!.!.!.!.!.!.!.!.!.!.!.!.!.!.!.!.!.!.!.K.b.b.b.b.b.Q.Q.Q.Q.Q.!.!.!.",
"!.!.!.!.!.!.!.!.!.!.Q.Q.Q.!.!.!.!.!.!.!.!.!.!.!.!.!.!.!.!.!.!.!.K.K.K.!.K.K.U.!.!.!.!.!.!.!.!.!.U.!.!.U.U.K.b.b.b.A.Q.Q.Q.!.!.!.",
"!.Q.Q.!.!.!.!.!.!.!.b.b.b.K.H.Q.!.!.!.!.!.!.!.!.!.!.!.!.!.K.K.n.b.b.c.b.b.b.b.b.Z.K.Q.Q.!.!.!.!.!.!.!.!.!.!.U.b.b.b.b.Q.Q.!.!.!.",
"Q.Q.Q.!.!.!.!.!.!.!.Q.G.b.b.b.n.K.K.K.!.!.!.!.!.!.!.!.G.K.K.b.b.b.b.b.b.b.b.b.b.b.b.n.Q.!.!.!.!.!.!.!.!.U.!.!.U.Q.b.b.b.Q.Q.!.!.",
"U.A.A.!.!.!.!.!.!.!.Q.J.b.n.b.b.b.b.n.K.K.G.!.K.Q.Q.K.Z.b.b.b.Z.!.!.!.K.!.!.!.!.n.b.b.n.!.Q.!.!.!.!.!.!.!.!.!.!.Q.Q.A.b.b.Q.Q.Q.",
"!.K.A.U.!.!.!.!.!.!.!.Q.K.J.b.b.b.b.b.b.b.b.b.n.Q.Q.K.Q.A.b.b.!.!.K.!.K.!.K.!.K.A.A.b.b.K.Q.!.!.!.!.!.!.!.!.!.!.Q.Q.Q.Q.b.Q.Q.Q.",
"!.K.U.!.U.!.!.!.!.!.!.!.!.!.H.H.K.b.b.b.b.b.b.b.b.Z.Q.Q.Q.Q.!.U.!.!.!.!.!.!.!.K.!.K.n.b.b.!.!.!.!.!.!.!.!.!.!.!.Q.!.!.!.b.b.Q.Q.",
"!.!.U.b.!.!.!.!.!.!.!.!.!.!.!.!.!.!.A.K.H.H.H.H.K.Q.Q.Q.Q.!.!.!.K.!.K.!.!.!.!.!.!.K.!.!.A.A.Q.Q.!.!.!.!.!.!.!.!.Q.!.!.K.K.b.Q.Q.",
"!.!.!.A.b.b.b.b.b.A.K.K.!.!.!.!.!.!.!.!.!.!.!.!.Q.!.!.!.!.!.!.!.!.!.!.!.!.!.!.!.!.!.!.!.K.!.!.!.!.!.!.!.!.!.!.!.!.!.!.!.K.A.!.Q.",
"!.!.!.!.!.K.U.K.b.b.b.b.H.!.!.!.!.!.!.!.!.!.!.!.Q.!.!.!.!.!.!.!.!.!.!.!.!.!.!.!.!.!.!.!.!.!.!.!.!.!.!.!.!.!.!.!.!.!.!.!.!.K.Q.Q.",
"!.!.!.!.!.!.!.!.K.K.H.b.b.H.Q.!.!.!.!.!.!.!.!.!.!.!.!.!.!.!.!.!.!.!.!.!.!.!.!.!.!.!.!.!.!.!.!.!.!.!.!.!.!.!.!.!.!.!.Q.Q.!.!.!.!.",
"!.!.!.!.!.!.!.!.!.!.!.K.n.H.Q.!.!.!.!.!.!.!.!.!.!.!.!.!.!.!.!.!.!.!.!.!.!.!.!.!.!.!.!.!.!.!.!.!.!.!.!.!.!.!.!.!.!.!.Q.!.K.!.!.!."
};
