/* XPM */
static char *cF9hXzVfcGhvdG8tcmVzaXplci5ydQ__[] = {
/* columns rows colors chars-per-pixel */
"64 64 192 2 ",
"   c #771D1E",
".  c #791D1E",
"X  c #741F22",
"o  c #6B2228",
"O  c #6A282F",
"+  c #7C2728",
"@  c #6A2B33",
"#  c #732C31",
"$  c #723339",
"%  c #333C57",
"&  c #353F5A",
"*  c #413549",
"=  c #4D354D",
"-  c #6A3E4B",
";  c #3A435D",
":  c #3C4761",
">  c #554358",
",  c #58455A",
"<  c #7A464D",
"1  c #624659",
"2  c #434B64",
"3  c #494F66",
"4  c #464E68",
"5  c #5D4E60",
"6  c #4D546B",
"7  c #5E5264",
"8  c #5A556A",
"9  c #50586F",
"0  c #4A5C76",
"q  c #555B71",
"w  c #585E73",
"e  c #675566",
"r  c #60596B",
"t  c #4E627C",
"y  c #5C6176",
"u  c #51657F",
"i  c #5D6478",
"p  c #6B6375",
"a  c #656779",
"s  c #65697D",
"d  c #74687B",
"f  c #871C1E",
"g  c #831E24",
"h  c #BC1D25",
"j  c #822228",
"k  c #912A2D",
"l  c #833638",
"z  c #B8222D",
"x  c #C41B22",
"c  c #CF1B24",
"v  c #D31B23",
"b  c #D4222A",
"n  c #CB2B32",
"m  c #D62A32",
"M  c #D82D36",
"N  c #C9323D",
"B  c #D6343B",
"V  c #DB353E",
"C  c #B63441",
"Z  c #C23A46",
"A  c #D73B42",
"S  c #D93D45",
"D  c #DD3E48",
"F  c #896C75",
"G  c #C6404D",
"H  c #D84047",
"J  c #D9444B",
"K  c #DA494F",
"L  c #DA4C52",
"P  c #DB5157",
"I  c #DC545B",
"U  c #DA585E",
"Y  c #E24E59",
"T  c #DD5C62",
"R  c #DC6368",
"E  c #DE656A",
"W  c #D76D73",
"Q  c #DE6D72",
"!  c #DD7176",
"~  c #E26870",
"^  c #EB6E7A",
"/  c #E0767A",
"(  c #516680",
")  c #566C86",
"_  c #596D85",
"`  c #596F88",
"'  c #5C718A",
"]  c #656C82",
"[  c #696C81",
"{  c #776D82",
"}  c #7A6E82",
"|  c #62768E",
" . c #6E7689",
".. c #64788F",
"X. c #787789",
"o. c #647890",
"O. c #6C7E94",
"+. c #717E92",
"@. c #877686",
"#. c #8B7F91",
"$. c #C67C8C",
"%. c #D57887",
"&. c #D17F90",
"*. c #EE7683",
"=. c #E37C81",
"-. c #EF7986",
";. c #F17E8B",
":. c #6E8196",
">. c #758195",
",. c #7C8496",
"<. c #73859A",
"1. c #77899D",
"2. c #7A8A9E",
"3. c #7E8EA1",
"4. c #848493",
"5. c #85899A",
"6. c #8D8D9C",
"7. c #978A93",
"8. c #948F9B",
"9. c #8F919F",
"0. c #92909C",
"q. c #A68E93",
"w. c #878FA1",
"e. c #8692A3",
"r. c #9495A3",
"t. c #9A97A3",
"y. c #9D98A4",
"u. c #9F9EA9",
"i. c #A19EA8",
"p. c #9EA4B1",
"a. c #A3A1AB",
"s. c #B9A2A8",
"d. c #A5A9B4",
"f. c #B6ABB2",
"g. c #ADB3BD",
"h. c #B3B4BD",
"j. c #CB8899",
"k. c #D28797",
"l. c #DB8291",
"z. c #F1818E",
"x. c #E88C97",
"c. c #F18A96",
"v. c #E59599",
"b. c #E6969A",
"n. c #C98FA2",
"m. c #D49DAC",
"M. c #E890A0",
"N. c #E69EA1",
"B. c #F49AA7",
"V. c #D5A7AD",
"C. c #C9AAB3",
"Z. c #CCA9B0",
"A. c #D6A8B2",
"S. c #D6B7BC",
"D. c #E7A3A6",
"F. c #E7A5A9",
"G. c #EAA6AB",
"H. c #E7A8AA",
"J. c #E8A9AC",
"K. c #F3A2AD",
"L. c #EBA8B2",
"P. c #E9B3B5",
"I. c #EAB7B9",
"U. c #EBBBBD",
"Y. c #AEB6C0",
"T. c #B7BDC5",
"R. c #BBBEC6",
"E. c #D6BDC1",
"W. c #EBBEC0",
"Q. c #F9BBC6",
"!. c #BDC3CC",
"~. c #C0C4CC",
"^. c #C9C2C9",
"/. c #D6C4CA",
"(. c #C3C9D0",
"). c #C9CBD1",
"_. c #D9CED3",
"`. c #CDD1D7",
"'. c #D2D6DA",
"]. c #D7D5D9",
"[. c #ECC2C5",
"{. c #EAC8CA",
"}. c #EDCBCC",
"|. c #F0CFD2",
" X c #EED3D4",
".X c #EBD9DA",
"XX c #D7DBE0",
"oX c #F0DFE0",
"OX c #E1E2E5",
"+X c #E5E7E9",
"@X c #F3EBEB",
"#X c #F4F4F4",
/* pixels */
") ) ) ) ) ) ) ) ) ) ) ) ) ) ) ) ) ) ) ) ) ) ) ) ) ) ) ) ) ) ) ) ) ) ) ) ) ) ) ) ) ) ) ) ) ) ) ) ) ) ) ) ) ) ) ) ) ) ) ) ) ) ) ) ",
") ) ) ) ) ) ) ) ) ) ) ) ) ) ) ) ) ) ) ) ) ) ) ) ) ) ) ) ) ) ) ) ) ) ) ) ) ) ) ) ) ) ) ) ) ) ) ) ) ) ) ) ) ) ) ) ) ) ) ) ) ) ) ) ",
") ) ) ) ) ) ) ) ) ) ) ) ) ) ) ) ) ) ) ) ) ) ) ) ) ) ) ) ) ) ) ) ) ) ) ) ) ) ) ) ) ) ) ) ) ) ) ) ) ) ) ) ) ) ) ) ) ) ) ) ) ) ) ) ",
") ) ) ) ( ( ( ( ( ( ( ) ) ) ) ) ) ) ) ) ) ) ) ) ) ) ` O.O.O.O.O.O.O.O.O.O.` ) ) ) ) ) ) ) ) ) ) ) ) ) ) ) ) ) ) ) ) ) ) ) ) ) ) ",
") ) ) ) : : : 4 4 4 ( ) ) ) ) ) ) ) ) ) ) ) ) ) o.o.3.T.(.(.(.(.(.(.(.(.!.<.o.o.) ) ) ) ) ) ) ) ) ) ) ) ) ) ) ) ` ) ) ) ) ) ) ) ",
") ) ) ) & 0 ] n.n.3 ( ) ) ) ) ) ) ) ) ) ) ) ) ) '.'.!.] i i w a i i i y ] !.'.'.) ) ) ) ) ) ) ) ) ) ) ) ) ) ) ) ) ) ) ) ) ) ) ) ",
") ) ) ) & t +.L.L.8 0 ( ) ) ) ) ) ) ) ) ) 3.E.'.: 6 w y.p.i.i.i.a.a.a.a.t.q 4 4 `.!.3.` ) ) ) ) ) ) ) ) ) ) ) ) ) ) ) ) ) ) ) ) ",
") ) ) ) & 0 [ x.M.p q ; ) ) ) ) ) ) ) ) 3.p. .i r.r.w._ ( _ _ _ +._ _ u >.r.r.r.y  .d.2.) ) ) ) ) ) ) ) ) ) ) ) ) ) ) ) ) ) ) ) ",
") ) ) ) % : = Z S E.R.2 ) ) ) ) ) ) ` O.Y.#.8.8.>.+.] q 6 6 2 q 4.q 9 9 6.+.,.+.w.8.+.Y.<._ ) ) ) ) ) ) ) ) ) ) ) ) ) ) ) ) ) ) ",
") ) ) ) % & = x M |.'.4 ) ) ) ) ` ` <.Y.X.5.a.+.r.2.i X.4.X.6 X.a 4.4.4.s w.r.r.5.i.4.p g.<.` ) ) ) ) ) ) ) ) ) ) ) ) ) ) ) ) ) ",
") ) ) ) % % = h n {.`.2 ) ) ) ) ) O.g.] n.} r.t.O. ._ 6 6 6 2 6 6.w 6 6 8.+.O.O.r.8.e O s g.:.) ) ) ) ) ) ) ) ) ) ) ) ) ) ) ) ) ",
") ) ) _ % % % g k s.d.2 ) ) ) ) ) <.Y.2 K.C 5 6 u.u.r.( t 0 0 q  .u t t O.r.i.p.6 5 @ . 4 R.<._ ) ` ) ) ) ) ) ) ) ) ) ) ) ) ) ) ",
") ) ) ) ) ( = X j q.i.: ) ) ) ) | T.{ L.m ^ L V = = , 0.i.y.y.i.t.y.y.y.7., = = v v x f X r R...) ) ) ) ) ) ) ) ) ) ) ) ) ) ) ) ",
") ) _ ) ( ( ; o $ 7.7.: ) ) ) ) <.T.@.M.v V *.c.N N C 1 , , = , > > , , - z x x v v x f o 1 d.<.) ) ) ) ) ) ) ) ) ) ) ) ) ) ) ) ",
") ) ) ) _ ( 2 & = 0 4 : ) ) ) ) ).@.$.D v v M M -.-.^ G Z Z Z Z Z z h z z c v v v v v x . @ p `.) ) ) ) ) ) ) ) ) ) ) ) ) ) ) ) ",
") ) ) ) _ ( ( ( 0 ( 0 ( ) ) ) ) OX} &.m v v v v S D Y *.*.*.*.*.^ m v v c c v v v v v v . o e OX) ) ) ) ) ) ) ) ) ) ) ) ) ) ) ) ",
") ) ) ) ) ) ) ) ) ) ) ) ) ) ) ) OX{ &.m v v v v v V ^ D V V V V B v v v v v v v v v v v . o , OX) ) ) ) ) ) ) ) ) ) ) ) ) ) ) ) ",
") ) ) ) ) ) ) ) ) ) ) ) ) ) ) ) OX{ &.m v v v v v V *.m v v v v v v v v v v v v v v v v . O 7 OX) ) ) ) ) ) ) ) ) ) ) ) ) ) ) ) ",
") ) ) ) ) ) ) ) ) ) ) ) ) ) ) ) OX{ &.m v v v v v V *.m v v v v v v v v v v v v v v v v . o 7 OX) ) ) ) ) ) ) ) ) ) ) ) ) ) ) ) ",
") ) ) ) ) ) ) ) ) ) ) ) ) ) ) ) OX{ &.m v v v v v V *.M v v v v v v v v v v v v v v v v . o 7 OX) ) ) ) ) ) ) ) ) ) ) ) ) ) ) ) ",
") ) ) ) ) ) ) ) ) ) ) ) ) ) ) ) OX} &.b v v v v v Y z.M v v v v v v v v v v b S v v v v . o 7 OX) ) ) ) ) ) ) ) ) ) ) ) ) ) ) ) ",
") ) ) ) ) ) ) ) ) ) ) ) ) ) ) ) OX} &.m v v v v J v.B.J v b B V v B B v V b J D.v v v v . o 7 OX) ) ) ) ) ) ) ) ) ) ) ) ) ) ) ) ",
") ) ) ) ) ) ) ) ) ) ) ) ) ) ) ) OX} &.m v v v v [./ K.}.v A J.}.m H.P.m U.I v.E v v v v . o 7 OX) ) ) ) ) ) ) ) ) ) ) ) ) ) ) ) ",
") ) ) ) ) ) ) ) ) ) ) ) ) ) ) ) OX} &.b v v v v @X{.Q.@Xv J }.#XM  X XM oXE [.[.v v v v   o 7 OX) ) ) ) ) ) ) ) ) ) ) ) ) ) ) ) ",
") ) ) ) ) ) ) ) ) ) ) ) ) ) ) ) OX{ &.m v v v v v V B.{.W.U J.}.m P.P.m U.B v v v v v v . o 7 OX) ) ) ) ) ) ) ) ) ) ) ) ) ) ) ) ",
") ) ) ) ) ) ) ) ) ) ) ) ) ) ) ) OX{ &.m A B b v v V ;.A M b M B v M m v B v v v v v v v . o e OX) ) ) ) ) ) ) ) ) ) ) ) ) ) ) ) ",
") ) ) ) ) ) ) ) ) ) ) ) ) ) ) ) OX{ &.L H.v.P v v A *.m v v v v v v v v v v b H H J V b . O 7 OX) ) ) ) ) ) ) ) ) ) ) ) ) ) ) ) ",
") ) ) ) ) ) ) ) ) ) ) ) ) ) ) ) OX{ m.L.L T =.m v V *.m v v v v v v b B v B K D.F.F.v.J + $ 8 OX) ) ) ) ) ) ) ) ) ) ) ) ) ) ) ) ",
") ) ) ) ) ) ) ) ) ) ) ) ) ) ) ) OXX.C.P v v B c v V *.m v v v v v v H H.A F.H.L J J I W.q.F a OX) ) ) ) ) ) ) ) ) ) ) ) ) ) ) ) ",
") ) ) ) ) ) ) ) ) ) ) ) ) ) ) ) XX{ k.m v v v v v V *.m v v v v v A b.U P.T J c v v S oXl - 8 OX) ) ) ) ) ) ) ) ) ) ) ) ) ) ) ) ",
") ) ) ) ) ) ) ) ) ) ) ) ) ) ) ) +X{ &.m D b v c S D *.m v v v v m H.T U.L v.A v v v H oXf o 7 OX) ) ) ) ) ) ) ) ) ) ) ) ) ) ) ) ",
") ) ) ) ) ) ) ) ) ) ) ) ) ) ) ) OX{ k.L L.L m S G.~ z.m D b v H M H.K m H.H b v v v S oX. o 8 OX) ) ) ) ) ) ) ) ) ) ) ) ) ) ) ) ",
") ) ) ) ) ) ) ) ) ) ) ) ) ) ) ) OX} m.|.K N.! F.J b.B.L N.K S [.B H.J v V v v v v v B oX. o 7 OXu ' u ' ) ) ) ) ) ) ) ) ) ) ) ) ",
") ) ) ) ) ) ) ) ) ) ) ) ) ) ) ) OX} A.@XM [.J.~ v T B.G.U v.U [.K b.H c v v v v v v H oX. o 7 OX] u ) ` ) ) ) ) ) ) ) ) ) ) ) ) ",
") ) ) ) ) ) ) ) ) ) ) ) ) ) ) ) OX} V..XS F.! [.v P G.P S N.K S [.P b m m v v v v v S oX. o 7 OX) ) ) ) ) ) ) ) ) ) ) ) ) ) ) ) ",
") ) ) ) ) ) ) ) ) ) ) ) ) ) ) ) OX{ k.I I.U J oXM G.G.m U.P b v .XS S P.I.B v v v v H oX. o 7 OX) ) ) ) ) ) ) ) ) ) ) ) ) ) ) ) ",
") ) ) ) ) ) ) ) ) ) ) ) ) ) ) ) OX{ j.m v v v v W.T W.|.L v.S v .XR H.m B H.P B [.K H oX. $ r OX) ) ) ) ) ) ) ) ) ) ) ) ) ) ) ) ",
") ) ) ) ) ) ) ) ) ) ) ) ) ) ) ) OX{ C.P S S b v M A ;.S L.D v v oXR v.m m H.E }.H D./ W.+ @.s OX) ) ) ) ) ) ) ) ) ) ) ) ) ) ) ) ",
") ) ) ) ) ) ) ) ) ) ) ) ) ) ) ) OX{ m.L.F.v.T D J T c.m A v v v oXJ B c P v.T oXB [.H.Q + F a OX) ) ) ) ) ) ) ) ) ) ) ) ) ) ) ) ",
") ) ) ) ) ) ) ) ) ) ) ) ) ) ) ) OX} k.L L U v.F.G.[.[.K S v v v {.P A A v.P J [.K F./ I.+ < r OX) ) ) ) ) ) ) ) ) ) ) ) ) ) ) ) ",
") ) ) ) ) o.o.o.o.| ` ) ) ) ) ) OX{ &.m v b A J Y }..X[.G.M v v P H.P.I.S v b H H.L J }.+ F a OX) ) ) ` ) ) ) ) ) ) ) ) ) ) ) ) ",
") ) ) ) o.!.'.'.'.R.O.) ) ) ) ) OX{ &.m v v v v b Y B.Y K v v v v J K K v v v v K b b J q.< r OX) ) ) ) ) ) ) ) ) ) ) ) ) ) ) ) ",
") ) ) ) ).T S J v T C.| ) ) ) ) OX{ k.b v v v v v V *.m v v v v v v v v v v v v v v v v . o 7 OX) ) ) ) ) ) ) ) ) ) ) ) ) ) ) ) ",
") ) ) ) O._..XW.I C.3.) ) ) ) ) OX{ &.m v v v v v V *.m v v v v v v v v v v v v v v v v . o 7 OX) ) ) ) ) ) ) ) ) ) ) ) ) ) ) ) ",
") ) ) ) o.].[.~  XXXO.) ) ) ) ) OX} &.m v v v v v V ;.m v v v v v v v v v v v v v v v v . o 7 OX) ) ) ) ) ) ) ) ) ) ) ) ) ) ) ) ",
") ) ) ) 2.A.! N..XE.w.` ) ) ) ) OXd &.m v v v v v V *.M v v v v v v v v v v v v v v v v . o 7 OX) ) ) ) ) ) ) ) ) ) ) ) ) ) ) ) ",
") ) ) ) ^.E S P T W s.o.) ) ) ) OX} &.m v v v v v V *.m v v v v v v v v v v v v v v v v . # 7 OX) ) ) ) ) ) ) ) ) ) ) ) ) ) ) ) ",
") ) ) ) w.S.{.[.W.E.w._ ) ) ) ) OX{ &.m v v v v v V *.b v v v v v v v v v v v v v v v v + F a OX) ) ) ) ) ) ) ) ) ) ) ) ) ) ) ) ",
") ) ) ) ,.V.U H P V.e.) ) ) ) ) OX{ &.m v v v v v M -.m v v v v v v v v v v v v v v v v h.0.s OX) ) ) ) ) ) ) ) ) ) ) ) ) ) ) ) ",
") ) ) ) .XQ U..X|.W C.o.) ) ) ) OX{ &.m v v v v v V *.m v v v v v v v v v v v v v v v v f.i.s OX) ) ) ) ) ) ) ) ) ) ) ) ) ) ) ) ",
") ) ) ) @XR }.#X.XE S.o.) ) ) ) OX{ &.m v v v v v V -.m v v v v v v v v v v v v v v v v f.i.s +X) ) ) ) ) ) ) ) ) ) ) ) ) ) ) ) ",
") ) ) ) _.! I. X}.! C.| ) ) ) ) OX{ &.m v v v v v V *.m v v v v v v v v v v v v v v v b f.7.a OX) ) ) ) ) ) ) ) ) ) ) ) ) ) ) ) ",
") ) ) ) w.V.! R Q V.e.` ) ) ) ) OX} k.m v v v v v V *.M v v v v v v v v v v v v v v v v a.l a OX) ) ) ) ) ) ) ) ) ) ) ) ) ) ) ) ",
") ` ) ) o.].}.[.[.'.<.) ) ) ) ) OXd &.m v v v v v V *.m v v v v v v v v v v v v v v v v l O 7 +X) ) ) ) ) ) ) ) ) ) ) ) ) ) ) ) ",
") ) ) ) oXE }.#X#X].<.` ) ) ) ) `.X.$.S v v v v v V -.m v v v v v v v v v v v v v v v v   @ p `.) ) ) ) ) ) ) ) ) ) ) ) ) ) ) ) ",
") ) ) ) oXR }.#X#XXX<.) ) ) ) ) O.d.#.k.A A M c v V -.m v v v v v v v v v v v v c x x x O p d.:.) ) ) ) ) ) ) ) ) ) ) ) ) ) ) ) ",
") ) ) ) oXE }.#X#XXX<.` ) ) ) ) ` 3.p. .k.&.%.S V K z.m v v v v v v v v v x x x z j + j p p.1.` ) ) ) ) ) ) ) ) ) ) ) ) ) ) ) ) ",
") ) ) ) _.W I. X X/.5._ ) ) ) ) ) ' 3.g.} d @.%.=.l.l.n x x x x x x x x x f f f + 1 , 7 g.2.' ) ) ) ) ) ) ) ) ) ) ) ) ) ) ) ) ) ",
") ) ) ) w.Z.W U U W f.| ) ) ) ) ) ) ` :.!.!.Y.{ p p e g f . f f f f . f + > > > r g.!.!.:.` ` ) ) ) ) ) ) ) ) ) ) ) ) ) ) ) ) ) ",
") ) ) ) ` 5.E.[.[.S.w.` ) ) ) ) ) ) ` ) 1.1.e.~.).).h.> * * % ; % * * * > h.).(.!.3.3.1.) ) u ` ) ) ) ) ) ) ) ) ) ) ) ) ) ) ) ) ",
") ) ) ) ) ) ) ) ) ) ) ) ) ) ) ) ) ) ) ) ) ) ) ) ' ) :.'.+X+X+X+X+X+X+X+X'.:.) ) ) ) ) ) ) ) ) ) ) ) ) ) ) ) ) ) ) ) ) ) ) ) ) ) ",
") ) ) ) ) ) ) ) ) ) ) ) ) ) ) ) ) ) ) ) ) ) ) ) _ _ _ :.:.:.:.:.:.:.:.:.:.s ) ) ) ) ) ) ) ) ) ) ) ) ) ) ) ) ) ) ) ) ) ) ) ) ) ) ",
") ) ) ) ) ) ) ) ) ) ) ) ) ) ) ) ) ) ) ) ) ) ) ) ) ) _ _ ) ) ) ) ) ) ) ) ) ) ) ) ) ) ) ) ) ) ) ) ) ) ) ) ) ) ) ) ) ) ) ) ) ) ) ) ",
") ) ) ) ) ) ) ) ) ) ) ) ) ) ) ) ) ) ) ) ) ) ) ) ) ) ) ) ) ) ) ) ) ) ) ) ) ) ) ) ) ) ) ) ) ) ) ) ) ) ) ) ) ) ) ) ) ) ) ) ) ) ) ) "
};
