/* XPM */
static char *_43154a8c54a450cc3d7d34939f7b240RVwB4254RBB8jNF3[] = {
/* columns rows colors chars-per-pixel */
"64 64 255 2 ",
"   c #020101",
".  c #0B0301",
"X  c #030A01",
"o  c #0B0901",
"O  c #03020B",
"+  c #0A020A",
"@  c #030A0B",
"#  c #0D0B0C",
"$  c #130301",
"%  c #1B0401",
"&  c #140B02",
"*  c #1C0A01",
"=  c #15020C",
"-  c #1B030A",
";  c #130C0A",
":  c #1C0A0A",
">  c #011401",
",  c #081803",
"<  c #141402",
"1  c #1C1302",
"2  c #181707",
"3  c #1C1C01",
"4  c #020112",
"5  c #02011B",
"6  c #0B0418",
"7  c #170416",
"8  c #051816",
"9  c #161815",
"0  c #230501",
"q  c #2C0501",
"w  c #240B01",
"e  c #2B0B01",
"r  c #26080B",
"t  c #320402",
"y  c #330B01",
"u  c #3B0A04",
"i  c #231301",
"p  c #2B1301",
"a  c #231B01",
"s  c #2B1C02",
"d  c #24140C",
"f  c #29180B",
"g  c #351302",
"h  c #3B1302",
"j  c #331B02",
"k  c #371708",
"l  c #280717",
"z  c #350716",
"x  c #281715",
"c  c #381817",
"v  c #052603",
"b  c #1B2201",
"n  c #182704",
"m  c #033801",
"M  c #193A00",
"N  c #09251A",
"B  c #122417",
"V  c #232200",
"C  c #2C2201",
"Z  c #2A2907",
"A  c #342301",
"S  c #3D2301",
"D  c #372906",
"F  c #273802",
"G  c #373901",
"H  c #262717",
"J  c #392915",
"K  c #383517",
"L  c #060324",
"P  c #170829",
"I  c #021A27",
"U  c #100A33",
"Y  c #270624",
"T  c #311128",
"R  c #062A28",
"E  c #08352B",
"W  c #152E31",
"Q  c #063434",
"!  c #292C26",
"~  c #342423",
"^  c #343329",
"/  c #460A03",
"(  c #550802",
")  c #441400",
"_  c #481803",
"`  c #4C1B02",
"'  c #531402",
"]  c #581703",
"[  c #541C01",
"{  c #5D1B01",
"}  c #480918",
"|  c #531618",
" . c #660801",
".. c #780802",
"X. c #631600",
"o. c #681503",
"O. c #641B01",
"+. c #6B1C01",
"@. c #751706",
"#. c #741B01",
"$. c #7C1B01",
"%. c #771C16",
"&. c #432301",
"*. c #492404",
"=. c #572603",
"-. c #573305",
";. c #4E3210",
":. c #672702",
">. c #6C2301",
",. c #732202",
"<. c #7B2300",
"1. c #772A0A",
"2. c #683405",
"3. c #7D3307",
"4. c #792715",
"5. c #683219",
"6. c #4E132A",
"7. c #721822",
"8. c #4B2D28",
"9. c #722E2A",
"0. c #0E4603",
"q. c #324C05",
"w. c #114639",
"e. c #324A36",
"r. c #59460E",
"t. c #694C02",
"y. c #544A2E",
"u. c #754C2C",
"i. c #74702A",
"p. c #0F064B",
"a. c #0A015A",
"s. c #2C2F58",
"d. c #000763",
"f. c #691A5A",
"g. c #184846",
"h. c #175447",
"j. c #0A4E50",
"k. c #2F5649",
"l. c #18665E",
"z. c #0E6D69",
"x. c #870503",
"c. c #861803",
"v. c #831C02",
"b. c #8B1C01",
"n. c #951D01",
"m. c #981801",
"M. c #941510",
"N. c #A70F0A",
"B. c #A51B00",
"V. c #B71B01",
"C. c #842301",
"Z. c #8D2302",
"A. c #882903",
"S. c #932401",
"D. c #9B2202",
"F. c #952901",
"G. c #992907",
"H. c #893306",
"J. c #973604",
"K. c #872813",
"L. c #912B17",
"P. c #943714",
"I. c #A52703",
"U. c #AB2300",
"Y. c #AC2A00",
"T. c #B42301",
"R. c #B82900",
"E. c #A73602",
"W. c #B43400",
"Q. c #B93904",
"!. c #A93314",
"~. c #91192C",
"^. c #AC112F",
"/. c #942A2D",
"(. c #B4312A",
"). c #C81400",
"_. c #C72702",
"`. c #D32A03",
"'. c #C63A02",
"]. c #D63701",
"[. c #C63A1E",
"{. c #F03006",
"}. c #C62730",
"|. c #894904",
" X c #944D0A",
".X c #A84803",
"XX c #B64603",
"oX c #B85903",
"OX c #AE4E10",
"+X c #9B710F",
"@X c #AF6B06",
"#X c #95502A",
"$X c #AB5431",
"%X c #926C2E",
"&X c #B26F2F",
"*X c #C94702",
"=X c #D84A02",
"-X c #C75704",
";X c #D65802",
":X c #D45218",
">X c #EF4E08",
",X c #F84902",
"<X c #C96700",
"1X c #D36808",
"2X c #DA7708",
"3X c #EA6B09",
"4X c #CE4F27",
"5X c #D36E2A",
"6X c #EC6931",
"7X c #8B1C4B",
"8X c #B4077D",
"9X c #9B574E",
"0X c #048547",
"qX c #1B966E",
"wX c #299370",
"eX c #35A779",
"rX c #AF960A",
"tX c #B68929",
"yX c #B4A436",
"uX c #CF8B0A",
"iX c #ED9411",
"pX c #EC9D38",
"aX c #CFAD33",
"sX c #E1C910",
"dX c #AD8A4F",
"fX c #B7AB4C",
"gX c #CA9147",
"hX c #181F88",
"jX c #265099",
"kX c #0468C3",
"lX c #A21E94",
"zX c #827981",
"xX c #0D9494",
"cX c #219D99",
"vX c #1DB090",
"bX c #2EAA8C",
"nX c #108AA4",
"mX c #15B3B0",
"MX c #25AEA7",
"NX c #499E94",
"BX c #4CB093",
"VX c #29CEB7",
"CX c #2BE1B0",
"ZX c #4AC9B2",
"AX c #64C1AF",
"SX c #10D3CE",
"DX c #09D7D3",
"FX c #2ED3CA",
"GX c #28D8D7",
"HX c #27E6DA",
"JX c #02D1E7",
"KX c #04E8E9",
"LX c #2DF1ED",
"PX c #56F8E4",
"IX c #AECEA5",
/* pixels */
"X . $ $ . o X X - $ % $ . . & . % % % . n P +   $     6 @   # s.`.).].4X1X;X2X;X1X`.5X;XsX:X4X{.pXiX=XI.w   . +.( g .XI.u B.T.D.",
"3 F i V a a a V % * G . &.S A a t s y j 8.K ~ d O % 0 q } p v @ $ % % % % * e $ & % * % M < k ~.}.=.>.0 i.;   $ t % * % I.y % % ",
"p _ ) j q q h &.  j -.o #.=.*.<  .p +.b.lX^ zX4.. O.$.$.H.K.H   X                       X     - / $ $   1 O     $ %     0 .     ",
"m.E.D.m.c.n.Z.D.% e g : ) ( ) s D T / ( 6.P s.T X a e u Z ~ v   < X 6 $ $ % $ $       $ $ .     0       . .       .         .   ",
"B.Q.OX_.4XR.U.V.N.C.Z.C.S.U.V.m.; ~.I._.  o 6 $ q . & { X @ X   X . q +./ #.' $ .   % v.$.%     .       % . . $ 5     6 & . +   ",
"0 e f y 6.~.T.b.B.] G.<X XQ.).).O / U.=X. X.y n.$.O.t / m X .       $ e 3 e % .     $ q q .             . . . % +       oXc p.0 ",
"% . *       $     O Y %     + %   % r     i e e x p C j p e p e p e p s :.k p D j J 8.g               .   . $   , 0 6 m - $ $ . ",
"#.u <.:   $ ' .     d #.  o T ] . ..$.$ ;  XR.W.Q.Q.XXdXoXW.XXQ.oXXXXX'.yX@XoXtXXXtXtXXX        4 +       $ .     $ = + U = % . ",
"% + w x   $ $     w * * % . # $   0 0   w p / ) _ _ ' k ) ) _ =.-.` &.` *._ _ *./ ;.;.:.0 : o   O 9 o . v . $ . . d L X ! % $ , ",
"* O O r . h $ . . %.-.X ] o     O 7 O 4 X.q  .+.v.v.b.(  .+.4.P.$.1.5.o.$.$. . . .O.<.E.,.b X     + .   3 + + . & w n B 7 . . , ",
"H.* % v.4 $ $ [   u y   *       X o + p.% . 0 % 0 q w & 0 % w f e q d j t / t 7 q q u ) =.&     % $ 0 $ y P p.0 M A / T & $ e F ",
"p     0       & % . . O     >     % O 4 >         $   N               X   . .   % b.n.Z._.O.$   O.q #.n.B.@.z m.+XH.G.~.V.^.@.r ",
".               o               L O X 0.      X   & .   7 : .   A i . % 0 $ h d O X         w *X].:X6X`.sX3X4X>X=X1XiX6X,X{.,X,X",
"j * 1 o . X v . Z X                   v   . . m . 2 w . *.#.e   aX@X=.C.F.[ oX%X* 1 $ % % * i A.( t o.{ s v.' n.% ;.fXpX=X].;X=X",
"% $ o i a i * a * & 1   ,     $   $ . b < % w F a w i % * v.' O  XdXH.m.|.>.A.1.S.J.=.$...H.=.:.6 O + +   % . %   @ f Z q e y e ",
"% % $ o o o . . + = .   a $   . $ .   . 1 w w < . . . . 0 e q X f J d y a w i * g ;.c y q g 1 w O       X . X         . *   . . ",
"+.$.{ .           O     |.*.$   #.$     :.Z.J.&       $ n.u @.z o o * p $ $ n 1 $ Y r i z . o o   X .   b F V o 3 . + % G & % a ",
"w r %         l         s *     0       * w p     o J m.Y.D._.(.& >.U.J.B.$.y S.x.M.M.n.|.1 b q.3 V a   G q.q.q.. % s s q.A s w ",
"%       4         =               % $       X ~ e     i w $ %   X Z o   h % o f M i 1 q.r * C w w K f P 0 q r k y V Z } * % $   ",
"        $ O 5 v O         +     $ c.} L       O E.* 1 @XE.h <.$ ; u.d   .X* 2 tXD. X>.:.2.,.n.Q.<.E.J.E.b.U.J.oXT.^.G.OXXXE.c.h ",
"  > X 6   4 L 4               .   % 7 a.  X >   y . $ h w . * $ O d $   p + o a q z w $ ^ d / V.e E.'.Q.y E.oXgX_._.!.gX>X>X>X;X",
"  @ > O     4         0 X           O L               %   X % 7 : 7 0 w t w < * 0 r w % c ~ z ' w =.+.(   u ] r.] ] / J =X;X:X=X",
"  L @     O     X     =             , w           O       d L.4.9X7XN.Q.K. X2.#.Q.c./.<.4X$X[.`.Q.$X!.N.* e A.5XQ..Xe q _ A ` _ ",
". I 9 0.. ~ v   0.X                 X n   & O             o u w T Y y g w s a w [ y e w ,X>X,X,Xk | '.{.4XOX:.iX_ E.p . Q.*.#X*X",
"  9 O X     0 }         *.o             . S.W.T.        o e c.$ 9 n.V.V.B.n.S %Xb.& * V.2 &XH.% T.!.l   O p.4     .         $ 4 ",
"          z $.b.  > o * * % * . w * % . & p p e . $ . ; c i 0 $ e ; $ w w x ; 2 .   X % v < * $ q 0 o % $ O   X   X X   $ . = a.",
"% r + q w } '  .  o A $.#.v.$.` !.C.#.h &.2.>.O.j X.' /.c.C.+.*.$.& . ` S 3 b 0.    O 1 X 2 a 3 a o < 3 i * < a   < <   6 q 0 7 ",
"M./.h B.S.I.D.n.% i e h _ z 0 * k j d 2 1 a p w 1 J p L.B.B.) i q . % S.Z.i o < > . % k o o ; X %   X X l = o o   . o   + ( a 3 ",
"(.L._ Y.W.,.G.` F.OXJ.C.@X_ * & : Z B Z D q.n < A D < _ *.A s 3     . t &.$ $ 7   t +.k F 1 x X         =             X   < X . ",
"Y t &.=X>X5X5XuX>X,X>X3X3X;X<X-X-X-X2X-X5XuX-XuX:X@XF X . * & @         .   % O   - 0 l o X #       4   b.%                     ",
"0 0 s a V 2 L $ * a a % V 7 a.= V 6 d   C W.`.,XsX5X:XpXM , v   % $ . % d.O .     % l   $ .       + % 4 & O.%   l O           8 ",
"$ % p e X 0 k + $ . $ - X - 4 $   + $     % y S.5Xx j G.S.* .   .X) ) !.C y p g Z :.oX;.j ) g p ~ c f 8 n & 9 W N R E Q E W W Q ",
"  * 2.#.. c u.9 q . % ; = | % 0 % =     w $ X % x .   % / % p   <X.XOXOX@XE..X.X@X.X-XfX+X&XOX=XIX9X$Xk.r.w.l.VXbXVXVXmXFXVXMXGX",
"  @ i w   = f H . $ ' H % r t ..{ q $ % c.q i 1 z % & 0 0 % w . A j G 8.K J j g D g D y.q.NXy.gXPXBXk.h.e.vXbXMXHXMXmXg.GXHXVXLX",
"o . $ . 6 $ ; d     D yX..o.$._.w o.X. .x.m.E.J...@.C.B.O.,.O.t   . N MXI z.R       9 wX8 xXg.BXVXl.cXmXqXvXmXhXCXj.p.@ Q SXDXLX",
"t.#.$.>.v.b.G.[.    . ! 0 % w y   0 q 0 t m._ p h.T y y 1 V 1 .     @ W ^ R @       X N   R @ W E # W w.R E E L W @ @ X X E j.LX",
"2.L.G.2.U.T.R.E.Q._.G.}.R.E.Y.=.&.A j w D /.5.+ =.J.&.V V V V V a 6 2 . n C C V s A A j   C V v * w X.. X         $       O L X ",
"j.h.w.R : %.P.P.e %.L.M.u. X XL.9.B 9 4.-.P.v.L !.OX;.8 X       X     % X O X     . $ q         $.$ .   a       . ' %     % .   ",
"d.j.j.j.Q h.k.h.O w.e.W l.h.h.w.jXj.h.e.W e.6.hXe.e.e.j.w $ & w % w * $ * * % w % } / w         %       &         $             ",
"5 8 @ 8 9 I I 9   9 8 8 R 8 I R U 8 8 8 N t.K.#XK 5.5.K m.` =.O.,.<.[ _ ] =.*.3. .@.#.=.        4       % . = $ $ $     &   X $ ",
". ] w   O.k % { + ' %   5 5 a.p.  O     v 1 w k * c ~ : N.h H y t.) p * * w 1 e % p j e . X   . O .     o : 7...+.+.%   r.& < C.",
"X &.#.0 e $.e q P 3 X     + 6 6   5     U     l >.4.1.+.B.c.S.B.Y.S.C.$ + O.*   & .XJ.>.$.$ O Y l q .   v o : 0 w 0 X L s X o 0 ",
"  g J.0   .     $ l s a p p p j i .         O Y           O           X 5 7 X   K ^ C p s p p j e h s C Z s g Z e f s e p p w   ",
"  . r X     O - . .X@X5XoXoX@X;X-X) % .   . + % % $ 0 : $ = - .     X n d.4 , $ yXfXrXoX-XoXXXuX=X:X2XiXaX2X:XuX3X4X1X=X;X;X*X) ",
"        $     .   w s c ) p h A.U...' q         O.q #.H 4             r 5       Z H Z p h p h J.F.Q.OXaXP.S.K.J.aXOXJ.C.Q.=X].'.",
"              $       O .   . e ( q $ .         0 . 0 : U - $ . $ % 0 q * w % 0 q $ 0 t % % % ) ) ' ` ;.e r T r K p e ) A.'.`.T.",
"            $ .         $     8 q .                     7 @.:.[ X...v.b.F.|.C.x.R.#.v./...b.<.<.Y.U.I.$XV b B 3 b , b a *.-.-.h ",
"          . %           . T #   $             0           0 w : % 0 0 q e p w 0 g * w Z t &.*.r.:.] ' =.V V &   q.Z b o D A Z A ",
". $.t . # %.: +   L - X m.t / b.  % ,.<X  # H @ $ K.7.=   $ 0 /.V o H ZXbXq.^ AX  ; B wXH MXg.B N 9 B eXl.h.wXeXLXCXFXGXLXl.xXSX",
"4 . .       O z         $ . . $     . *         > l @.= $ { g E.t.s %.P.K.I.(./.B r.H w.%XZXbXFXwXwXw.eXI cXbXeXLXVXcXR GXFXmXN ",
"w.B o   O R @ Q               %     .   >       w o =   w q $ * D c T l : ~ NXBXBXBXMXbXBXbXk.NXe.BXBXBXY ! s.ZXAXy.T T ! ! W   ",
"VXxXI   Q z.Q xX      R     $ +.X & g o > X X . +.; O X $.O.1   u.%.5.o   # ^ y.dX9Xu.u.#X#X1.#XP.$X&X&X8X~.9.#X9XL.7X7X<.@.%.w ",
"KXj.8   cXj.8 Q     R xXl X . &.3 < * < M b 3 a S a 2 3 S S a   *.j q.X     i * ;.*.f e ` ' =..X_._.Y.G.^.4._ S.S.' %.!.g A.OX#X",
"KXkXnX8 Q   X X     @ Q #     o X     X , o o o X X @ o X o X   w   X     X X   o < x O . + o d q p 0 w q * . * 0 . % w , 6.$XP.",
"LXGXGXKXHXFXCXCXHXDXSXFXKXDXSXSXDXDXJXDXSXbX~ + x O   8 . <.G.,.M.^.M.OX$.m.I.]..XH.J..X:X`.].Y.R.R.Y.A.:.A.:.A.F.Y.I..X..,.A.A.",
"j.9.y.j.0XE w.0Xh.y.H ;.l.^ ;.7.;.U hXI 8 ;.H U %X2 8 z.  w O.$ >. .Y g.$ ( u <.$ o Z i.>.4.OXA.F.G.C.<.&.*.=.>.m.C.A.2.{ 5.u.>.",
"2 z ; @ 8 o @ > 8 g 0 = b & $ $ y + 6 0   e f r 8.J k H % r y w c u l 8.% y y } % 7 x J g r r 1 * c * % o # # & w q q w & < 2 = ",
"X.0 * $ . 0 X   + 7.X.. 2.&     #.$ r +.. { K.v.%.1.P.$.@.>.+.$.f.4.v.K.+.,.~.^.+.f.u.*.3.Y 7 o X # X . O @ I   X . $   X X X   ",
"e  .#.b.0 .   v 5 x F X g ,   X 0 . O 0   * d 0 - w d 0 * * 3 w Y S &.&.A S D _ ;.9 x C -.g j A j * p C t % r   s * s & G a F * ",
"X % w 0 .     X     # X   @       $   O           B X           X . o X X o X X o     L +XF.S.F.R.U.G./.B.$...o ,.x.I.|.R.P.+XD ",
"    O Y   > X                 $ m # O $ $ m v     . . $   * n $ X v X   % % .   $ o v z     i _.T.F.T.T.6XOX}.]._.*XY.R.F.W._.Y.",
"  4 6 6   . 2 m                 X       . X X     > 1 $.= E.Y.k & * w - =.+.u t O.e r y   w A ` _ $.o.t A.y g .Xe h <.J.B.S.I.Y.",
"  5 a.U   . X X           .   $         % -   .   X b w l J.F. X[ ] $.7.C.,.+.v.0 ] %.$.$ X.C.H.2.) o.z %     p     % w e w w e ",
"    O O                                 .               O ; x : , o $ $ $ . . $   + $ $ 4 . $ & o   6 +         4         < N   "
};
