/* XPM */
static char *ec3c7b9b418749bb95e841701ce2850a2g5N9Zkp4c9i4xTQ[] = {
/* columns rows colors chars-per-pixel */
"64 64 253 2 ",
"   c #040309",
".  c #0B0717",
"X  c #120D1D",
"o  c #101314",
"O  c #171616",
"+  c #2C1C14",
"@  c #2D231C",
"#  c #130D23",
"$  c #1A1628",
"%  c #180E3D",
"&  c #1A1732",
"*  c #281A33",
"=  c #18242C",
"-  c #282928",
";  c #322827",
":  c #262537",
">  c #323133",
",  c #393537",
"<  c #4F2C1B",
"1  c #6B311C",
"2  c #441E20",
"3  c #533530",
"4  c #6C3932",
"5  c #4A433B",
"6  c #554338",
"7  c #734438",
"8  c #1B0F44",
"9  c #1D1148",
"0  c #22174A",
"q  c #271954",
"w  c #2C2549",
"e  c #2B2C4D",
"r  c #393747",
"t  c #33265C",
"y  c #362859",
"u  c #342562",
"i  c #382965",
"p  c #3D2C6B",
"a  c #3E3164",
"s  c #46334E",
"d  c #6D3B49",
"f  c #422F6E",
"g  c #4A2E6B",
"h  c #45346A",
"j  c #443273",
"k  c #483370",
"l  c #4B3677",
"z  c #56377A",
"x  c #38454F",
"c  c #2C515D",
"v  c #4A4949",
"b  c #564A49",
"n  c #4F524F",
"m  c #585757",
"M  c #6E4E4C",
"N  c #794849",
"B  c #775A56",
"V  c #72655C",
"C  c #514C70",
"Z  c #684C7A",
"A  c #546971",
"S  c #716969",
"D  c #823E27",
"F  c #AB4F14",
"G  c #B95615",
"H  c #884A37",
"J  c #AE5A29",
"K  c #B96335",
"L  c #C85C10",
"P  c #CA5D13",
"I  c #CC611C",
"U  c #D96618",
"Y  c #D96C26",
"T  c #DA722B",
"R  c #CD6D33",
"E  c #E1732F",
"W  c #843F5E",
"Q  c #885152",
"!  c #94625C",
"~  c #BF794F",
"^  c #8A477A",
"/  c #826A63",
"(  c #8B756B",
")  c #937270",
"_  c #AD7770",
"`  c #D27747",
"'  c #C77C79",
"]  c #DF833D",
"[  c #9A8478",
"{  c #9C9078",
"}  c #B4897B",
"|  c #D88652",
" . c #CD8B72",
".. c #E98B61",
"X. c #553D82",
"o. c #693E84",
"O. c #5B4588",
"+. c #5C458B",
"@. c #5A5486",
"#. c #6D4D8F",
"$. c #634B93",
"%. c #6B4D96",
"&. c #6C529C",
"*. c #72529C",
"=. c #7B529E",
"-. c #785899",
";. c #59718C",
":. c #757096",
">. c #6C65A4",
",. c #954C89",
"<. c #874C95",
"1. c #964E93",
"2. c #86549E",
"3. c #99529B",
"4. c #A35494",
"5. c #9C708E",
"6. c #8A54A0",
"7. c #9955A2",
"8. c #A456A4",
"9. c #A858A4",
"0. c #8D72A8",
"q. c #A967A9",
"w. c #B370AC",
"e. c #1A859E",
"r. c #1999B3",
"t. c #2C94B4",
"y. c #2FA3BA",
"u. c #558396",
"i. c #678D96",
"p. c #6E9DA5",
"a. c #779DA5",
"s. c #74A3AC",
"d. c #74ACB6",
"f. c #25AECF",
"g. c #46B2D0",
"h. c #72B6C2",
"j. c #12C7F1",
"k. c #34CAEC",
"l. c #78C9D9",
"z. c #45CDEB",
"x. c #41D0EF",
"c. c #45D1F1",
"v. c #56D8F4",
"b. c #7AD3E5",
"n. c #978D93",
"m. c #A58C83",
"M. c #AC9688",
"N. c #B4998C",
"B. c #AC9291",
"V. c #B89B95",
"C. c #B0A798",
"Z. c #BBA498",
"A. c #9598A6",
"S. c #AC97AA",
"D. c #8BADB4",
"F. c #AAA9AF",
"G. c #BBA3A7",
"H. c #BBA9B8",
"J. c #ADB3B6",
"K. c #B3B7BA",
"L. c #CB8583",
"P. c #D78888",
"I. c #D8968D",
"U. c #D09891",
"Y. c #E68E88",
"T. c #EF9687",
"R. c #E89796",
"E. c #F59895",
"W. c #FD9E9E",
"Q. c #CAA995",
"!. c #CAB798",
"~. c #D5B79A",
"^. c #E7A893",
"/. c #F7A59C",
"(. c #FC9FA0",
"). c #C5ACA3",
"_. c #D9AAA7",
"`. c #C9B6AB",
"'. c #DABAA6",
"]. c #C7ACB8",
"[. c #C7B6B7",
"{. c #D9B9BA",
"}. c #E7AEA6",
"|. c #FAA7A3",
" X c #F9B5A6",
".X c #D5C39F",
"XX c #EEC69A",
"oX c #DAC7A8",
"OX c #D9C6BA",
"+X c #E3CDA8",
"@X c #F7C9AC",
"#X c #E8D1AA",
"$X c #EDD0B8",
"%X c #F7D7B6",
"&X c #FBDCB5",
"*X c #EAE2BE",
"=X c #F9E3B8",
"-X c #FBE3B9",
";X c #8BBAC8",
":X c #B6BAC3",
">X c #B4B5C8",
",X c #CBB2C4",
"<X c #D1B6CA",
"1X c #D9B9C8",
"2X c #E1BAC3",
"3X c #88C2CD",
"4X c #90C0CD",
"5X c #89C9D6",
"6X c #98CDD6",
"7X c #94D2DD",
"8X c #BDC3C6",
"9X c #AACBD4",
"0X c #87D4E3",
"qX c #89D2E2",
"wX c #94D6E2",
"eX c #9BD7E2",
"rX c #A8DDE7",
"tX c #B6D8E6",
"yX c #9CE6F8",
"uX c #B3E1EA",
"iX c #B5EAF9",
"pX c #BDEEFB",
"aX c #C6C8CC",
"sX c #DBC8C7",
"dX c #C7CBD4",
"fX c #DCC4D6",
"gX c #D1D4D5",
"hX c #D3D9DC",
"jX c #E3CBC6",
"kX c #E7D5C9",
"lX c #F6D9CA",
"zX c #E7D4D5",
"xX c #F1DCD3",
"cX c #E7E1C3",
"vX c #F3E1D4",
"bX c #FAE9DB",
"nX c #D6DCE2",
"mX c #E2DBE5",
"MX c #C9E7EE",
"NX c #DBE3E8",
"BX c #C5EFFB",
"VX c #D8EEF5",
"CX c #D8F2F9",
"ZX c #DAF4FC",
"AX c #E5E7EC",
"SX c #E7EEF2",
"DX c #ECEDF5",
"FX c #EBF2F6",
"GX c #E4F4FA",
"HX c #EBF7FB",
"JX c #EDF5FA",
"KX c #F0F7FD",
"LX c #F2F9FE",
/* pixels */
"KXLXLXLXJXJXJXLXLXLXKXKXLXLXLXLXLXLXLXLXFXLXKXLXLXLXKXKXLXLXLXLXLXHXLXLXLXLXLXHXLXLXLXLXLXLXLXHXLXLXLXLXLXLXKXKXKXLXLXLXLXLXHXLX",
"KXLXLXHXAX{.{.AXDXDXJXLXLXLXLXLXLXLXLXLXhXAXDXDXLXLXLXLXLXLXLXLXLXLXLXLXLXLXLXLXLXLXLXLXLXLXLXLXLXLXLXLXLXLXLXLXLXLXLXLXLXLXLXLX",
"LXLXLXJXjX.. ._.{.1XaXdXLXLXLXLXLXLXLXLXAX{.{.}.aXgXFXLXLXLXLXLXLXLXLXLXLXLXLXLXLXLXLXLXLXLXLXLXLXLXLXLXLXLXLXKXLXLXLXLXLXLXLXLX",
"LXLXLXLXDX1X_.T Y G < - FXFXGXLXLXLXLXLXbX| Y E O x aXKXLXLXLXLXLXLXLXLXLXLXLXLXLXLXLXLXLXLXLXLXLXLXLXLXLXLXLXKXLXLXLXLXLXLXLXLX",
"HXLXLXLXLXLX8X- -X-X-X&Xo O , aXVXCXCXZXZX9Xc .X-X.Xm gXCXZXZXZXZXZXZXZXZXZXZXZXCXCXZXZXZXZXZXZXZXZXCXCXCXCXCXZXZXJXLXLXLXLXLXLX",
"LXLXLXLXLXHX4Xc !.-X-X-XI.P.} M f.k.k.c.c.k.y.> &X-X!.; z.k.c.k.k.c.c.k.k.c.c.v.v.v.v.c.v.v.v.v.v.v.v.v.g.t.t.f.k.yXGXLXLXLXLXLX",
"LXLXLXLXLXBXx.y.5 +X-X-X&X|./.L.c h.b.b.b.b.h.o  X&XoX, d.b.b.b.b.b.b.b.b.b.b.pXBXBXiXiXpXBXBXBXpXBXBXpX:.@.a ;.f.c.BXLXLXLXLXLX",
"LXLXLXLXLXpXx.l.O +X-X-X-X-X@X/..Xn d.wXwX7Xh.o &X X%X#X- h.wXwXwXeXwXwXwX7XeXHXLXGXuXeXGXLXLXLXLXHXA.F.>X>XA.:.dXz.iXLXLXLXLXLX",
"LXLXLXLXLXpXc.l.O +X-X-X-X=X&X/.W.L.M ,X1X<XD.o /./.&X-X- D.<X7XwXwXwXwXwXwXeXCXJXGXrXwXGXLXLXLXLXLXLXLX:.h C :.dXt.tXLXLXLXLXLX",
"LXLXLXLXLXBXc.5XO .X=X&X-X&X@X/.W.E.R.zXfX<XH., W./.@X=XZ.C F.wXwXwXwXwXwXwXwXrXJXGXuXwXVXHXLXLXLXLXLXKX>XA.:.@.SXv.iXLXLXLXLXLX",
"LXLXLXLXLXpXc.l.O XX&X X&X X/.W.W.W.|.lXzXG.S.5.|.W. X%X#Xn S.wXwXwXwXwXeXwXwXwXVXJXVXrXuXGXLXLXDXDXDXKXKXHXnXnXGXv.pXLXLXLXLXLX",
"LXLXLXLXLXpXc.5XO .X/./.W.W.W.W.W.W.W./.bXm.- o fX1X|./.+Xb S.eXwXwXwXwXwXwXwXwXrXCXLXGXHXKXLXKXfXfXfXJXLXLXLXLXGXv.iXKXLXLXLXLX",
"LXLXLXLXLXpXc.0X3Xn Q.|.&X|.W.W.|.zXvXbXvXC.Z.vX@ m.G.*  .b A.;X5X5X7XwXwX7X6X7XeXVXKXKXDXfXsX<X+XfXSXLXLXLXLXLXGXv.iXLXLXLXLXLX",
"LXLXLXLXLXpXc.0X7Xp.m R./.W.W.W.(.Q.).jXbXkX$XkX].OXsXH.m n.m n n m s.7XrX8XtXwXwXtXAX{.fX$X.X!.S dXKXLXDXFXDXDXVXb.pXKXLXLXLXLX",
"LXLXLXLXLXpXc.0X7Xd.m Z.P.W.W.W.W.R.Z.Z.bXvX`.C.m.C.Z.jXOXkXOXC.oXC.m 3X].H.9XeX6X>X].` @X!.V b :XAXFXDXzXfXfXzX1X>XdXgXhXDXLXLX",
"LXLXLXLXLXpXc.0XwX7Xs.- @ Y.W.W.|.lXvXvXbXbXkX{ = y.n.M.bXbXsX- nXOXv :XR 5 d.<X,XM 3 P +XV J.NXDXnX1XfXlX&X-X&X}.s O O - K.LXLX",
"LXLXLXLXLXpXk.qX3X3Xl.3XD.> , ].O O , ,X1XsXkXzX{ { OXkXkXkXcXvXkXm s.,XI < m.Y 2 2 < I @ H.zX1X3 4 !.&X/.R.P.; = y.iXFXJXKXLXLX",
"LXLXLXLXLXiXg.d.v v v v }.I.P.W.S.S.S.S.<XS b - 5 5 b ; 5 5 n `.K.m a.Q F 4 K U 1 1 K ` 5 G.$X%XN B ~. XL.B m K.dXz.iXLXLXLXLXLX",
"LXLXLXLXhXJ.A x !.L.U. .W.W.W.W./.V.m.v ].K.C.- { !.{ @ V S ( , b a.H.K 4 _ Y.E K R ' M Z.+X/./.Q.~.}.W.B F.8XSXCXv.pXLXLXLXLXLX",
"LXLXLXAXO 5 Z.#X&X/././.W.W.W.W.(.R.M._ - ,XxXkX; N.6 ( = D.;Xo [ J.}.E.R.,X1X1X1X1X1X].2X` U Y E _.1X1XnXCXrX7XVXv.iXLXLXLXLXLX",
"LXKXAXsXP L T .X#X#X=X&X|./././.(.(.R.[ ( ; 3 aX@ { 6 { = d.7X0XwX9X'.1XjX$X X&X%X%X$X,XR _.1X1X{.` 4 sXAXAXAXmXVXv.pXLXLXLXLXLX",
"LXFXmXvX6 5 > v n m N.I.~.|././.W.E. .5 3 } _ , J.S V ( / n D.wX6X} _.%X%X X@X&X@XI.! Q H U.$X%X(.' 4 / / / / S D.g.9XgXJXLXLXLX",
"LXKXFXFX8X4Xy.d.d.p.m 5 b Q..XXXP.L.B / L.}.Y.; aXC.b @ { 5 C.rX6X ._. X X@X@X XR.! } ~.I. X X|.R.! K U.~.!.~.~.S m V B aXNXhXKX",
"LXKXLXKXJXpXx.0XwX7X3X3Xd.> O O O : D.#XW.W.W.R.- OXoXo [ 5 !.=X7XzXjX%X&X X|.W.d  .@X|.@X XW.W.1X,X<X1X1XfX1X-X#X#X#X#X, O O NX",
"LXLXLXLXLXpXc.5X` 9X6X7X7X6X6X5X6X9XcX=X=X/.L.; ) b `.OXO ~ E T E +XQ.R.R.P.7 3 ^.@X XW.R.R.2X1X%X-X&X&XI.Q L.Y.E.R.Y.R.P.R G @ ",
"LXLXLXLXLXpXc.qX`._.U.V.*X*X*X*X%XcX%X.X~.} B / ( B n m @ J R } } V.{.Q.N H J L ^./.W.Y.Q ! '.%X%X%X^.I.! _ ' b v x b b b 3 6 K.",
"LXLXLXLXLXpXc.0X9XD.m s +X+X+X#X+X+XZ.5 , 3 S M.3 5 / C.( 7 _ $XkXQ.V.{.[ ` ^.E ..T.Y.Q  .Q./.|.|.I.! N V.B b i.p.y.;XaX8XOXaXSX",
"LXLXLXLXLXBXc.0XwX7X6XgXO O O O O O o   9 h [.xX[ `.N.M.xXOXC.xXbXkXw.q.xXlXbXlX%X| U P E.W.W.W.R.! Q.+XsXoX.X: h.c.pXLXHXLXLXLX",
"LXLXLXLXLXpXc.0XwXrXVXLXNXAXNXNXNXNXK.# 9 q q t sXC.V.kXM.M.M.N.zXw.8.=.q.1XjXN.xXlX$XT U I 4 3 d L.@X=XE.Q ' R.5 r.rXHXHXLXLXLX",
"LXLXLXLXLXpXc.0XeXVXJXGXGXGXMXHXLXgXm w q q q q Z H.].B.{ Z.OX{.).q.8.8.3.Z C ) jXlX.. .T T I U._.U.I.I.P.Q N E. .n 5 [.HXKXLXLX",
"KXLXLXLXLXpXc.0XeXGXGXuXuXGXGXKXLXaX> 0 u i l p @.:.0.h M.OXkX).{.0.8.8.z o.h g w.OXU.%X} ^.] ] |.! Q N W _  .E.T.K F 6 aXHXLXLX",
"KXLXLXLXLXpXc.0XeXGXZXeXGXHXLXKXLXaX> 8 i p p $.&.&.+.q M.OXQ.m.zX0.=.9.g <.k 8 q.{.C.vXN.cX%XY lXkXR.Y.E ..E U U U U G 3 K.LXLX",
"LXLXLXLXKXpXc.0XeXGXSXrXLXLXLXLXLXaXx 8 p +.&.&.&.&.$.q { OXZ.m.jX0.=.8.g o.g q 3.{.Z.kXZ.kXbXlX%X..T.E ..` U L L L < + `.S 9XJX",
"LXLXLXLXKXBXc.0XeXGXHXCXLXLXLXLXLXSXF.$ p l &.&.&.&.$.O.S sXjXm.0.*.3.1.# * y z -.#.G.`.sXkX`.).| ^.~.K R G 1 + < 6 A.8XnXS 8XLX",
"LXLXLXLXKXpXc.0XeXGXHXLXLXLXLXLXLXLXdX- q O.0.C &.$.+.h ,XxXfXZ +.X.<.*     $ g $.#.q.{.vX`.OXOX} | 7 < < < ! + u.y.uXLXHXgXAXKX",
"LXLXLXLXKXpXc.0XwXrXFXLXLXLXLXJXLXLXFXNXX S.H.l $.u a 1XbXgX0.$.p u # 8 9 w S ) i +.-.q.xXkXQ.M.kX*XN.OX{ L.E.I - r.pXLXLXKXLXLX",
"LXKXAXNXSXuXx.0XwX5XeXAXhX, $ = > dXnX6X;X<X<X,Xa S.:.l j C X.p . X 8 q _ B.OXxXm.h O.*.q.sXxXxXcX`.OXvXN.R U U @ r.iXLXLXLXLXLX",
"JXK.m s c c f.;X;X;.@.$.@.u t t y v x e 3X<XkXfX5.:.h t # # & # e q t ) sXjXsXZ.[.<.k $.*.-.sXbX`.sXxX).oXB < F + r.iXLXLXLXLXLX",
"NXv % % 9 C >.>.>.+.p p p p p +.$.l y y ;.,X%X%XH.5.: X 8 8 8 8 p q : OXxXG.n.q.0.3.z f $.2.<XxXkXvXvXN.kXm.V < o r.iXLXLXLXLXLX",
"NX$ 8 q p p p p p p p $.$.p p p &.*.3.3.j ].lX-X>Xs . % u q q p H.y $ zXxX0.&.*.8.8.,.X g *.q.w.xXbXvXN.kXOXn d.= r.iXLXLXLXLXLX",
"NX: 9 0 i p p +.$.O.j p j p p p &.*.*.*.*.,X%X-XY R ) * 9 9 e S.,Xk 0 $ kX0.&.3.1.* * % i +.&.*.w.{.).kXC.{ 5 d.l.z.iXLXLXLXLXLX",
"GXn.: 9 q p p l $.$.O.p $.O.+.+.*.2.7.7.q.<X%X XP 4 B B.: # r ].$XA.y   [.>X@.g * 8 % 9 0 O.&.&.9.[.).vXN.G.m.r d.k.iXLXLXLXLXLX",
"LX8X, 9 q u p p j l j p $.l j p &.=.2.8.9.1X$X|.U 1 4 $Xn.C 5.$X%XG.h % v C.r . % 9 9 9 & i $.&.-.S.OXvXV.Z.`.w x r.iXHXLXLXLXLX",
"LXFXJ.o . 9 q u p $.&.$.p p p p j 3.7.=.2.,XlX&XXXR I E E {.sX-X@X` s 0 O M., % 9 X     s.+.$.*.-.q.1XZ.kXkXU.O # e 8XHXLXLXLXLX",
"KXLXGXhX:X: $ t u i a p u i t # f 2.=.&.9.3.Q ^.&X..E E P ! H.&XE U U `.C n., X $ p.;Xh.;Xx C *.*.q.1XkXZ.N.m.o % : K.LXLXLXLXLX",
"LXLXLXLXGX;Xe.: : : = # # # * l X.%.%.%.8.1.d P.oXR.E.....V.) $XU I 4 N G.<XS.i.a.;XwXwX5Xa j o.%.<.Z OXZ.).{ O % : F.FXLXLXLXLX",
"LXLXLXLXLXpXk.s.s.s.;.o t q u $.X.k X.%.2.3.,.N N ! ~.@X%X'.N '.Y I 1 2 ` {.jX:.>XeX7XwX5Xb * * h g s M `.| H 2 y y x NXLXLXLXLX",
"LXLXLXLXLXpXc.0XwXd.x O.$.p p p &.$.%.7.&.=.8.8.4.^ d 3 3 d ^ 4 ..T I P U 4 M {.1X<XS ;X6XN.4 + 2 g L.Y.7 G P P Z a $ nXLXLXLXLX",
"LXLXLXLXLXpXx.0X5Xx e i p p t # $ y j j 8.7.=.*.9.8.1.1.3.3.1.3 Y.Y.T. XXX.X'.fX*X..I 4 N ' P.Y.P.Q ' E.' H G 1 o.X.* hXKXLXLXLX",
"LXLXLXLXLXpXc.0X7Xi.r : : t e 0 0 8 t p 8.=.&.*.2.2.3.2.6.8.8.,.Q !  .R.^.R.|.].-X..| I F Q P.W.E.K H R R D F 3 o.l $ nXLXLXLXLX",
"LXLXLXLXLXpXc.0X7X5Xd.s.u.= # # # e p O.=.&.&.7.7.%.X.3.8.8.8.8.,.^ W d N Q 4.N #X=XXXXXY D ' E.E.E P U D W d z l u # nXLXLXLXLX",
"LXLXLXLXLXBXc.0XwXwX7X7X$ 8 8 8 u p O.p &.j j &.%.j f f 8.=.=.8.8.8.4.4.3.4.8.8.7 .X&X|.E.P.d 3 2 1 F 1 ,.4.=.j p u $ hXLXLXLXLX",
"LXLXLXLXLXpXc.qXwXwXwX7Xs.= $ X 0 u p u p : i &.f p l <.*.*.*.=.<.7.8.9.8.8.8.9.,.M M 4 4 d ^ 1.1.4.4.1.8.=.&.+.g w A.JXLXLXLXLX",
"LXLXLXLXLXpXc.0XwXwXwXwXqXs.p.p.= : : : e A r +.p p X.=.j X.<.2.*.<.o.3.2.6.7.9.7.,.^ O.Z O.=.2.o.<.6.=.o.z X.X.t > K.LXLXLXLXLX",
"LXLXLXLXLXpXx.0XwXwXwXwXwX7XqX7Xs.p.p.p.p.s.e a p j $.&.p j %.*.%.X.g X.7.7.6.8.6.7.8.7.*.*.6.7.o.X.2.*.h X.j p i > K.LXLXLXLXLX",
"LXLXLXLXLXpXx.0XwXwXwXwXwX7XrXZXGXGXGXZXo = u $.$.p u $.$.o.X.i p p p o.8.8.=.8.*.=.1.z 3.3.z j j o.%.j q X.j . X e.iXLXLXLXLXLX",
"LXLXLXLXLXpXc.b.wXwXwXwXeXVXZXLXJXdXm > t t p $.$.q q p j p q i X.X.X.X.&.&.X.&.3.<.z p %.%.l p +.O.@.p q w : p.h.k.iXLXLXLXLXLX",
"LXLXLXLXLXBXc.k.0X0X0X0XpXCXZXZXMXA w 9 i i p p u q 9 u i u l j X.p p p $.X.X.$.=.O.j p $.z +.+.j p p u q e ;.7Xb.x.iXLXLXLXLXLX",
"LXLXLXLXLXZXyXj.k.k.j.k.c.k.k.c.k.e.= X q q q q 9 9 # # i u O.+.X.p p p j j i p $.+.p p j p +.&.+.j u # $ u.5X7Xk.k.iXLXLXLXLXLX",
"LXLXLXLXLXLXHXZXBXZXZXZXZXZXZXZXCXVXMXhX          : F.hXX 9 i a $.j u . . u p $.&.$.l a # t h p p u = r.f.j.j.j.j.yXJXLXLXLXLXLX",
"LXLXLXLXLXLXLXLXLXLXLXLXLXLXLXLXLXLXLXLX8XaX8X8X8XdXSXKXK.r 0 y f t r J.F.r u $.l p i $   q i i & e A.pXBXpXpXpXBXHXLXLXLXLXLXLX",
"LXLXLXLXLXLXLXLXLXLXLXLXLXLXLXLXLXLXLXLXLXLXLXLXJXLXLXLXJXA.s : : r A.FXA y t f t w r A.- - : - D.J.AXLXLXLXLXLXLXLXLXLXLXLXLXLX",
"LXLXLXLXLXLXLXLXLXLXLXLXLXLXLXLXLXLXLXLXLXLXLXLXLXLXLXLXLXSX8XJ.J.:XAXLXF.> . X $ n.K.FXK.J.J.J.FXLXJXLXLXLXLXLXLXLXLXLXLXLXLXLX",
"LXLXLXLXLXLXLXLXLXLXLXLXLXLXLXLXLXLXLXLXLXLXLXLXLXLXLXLXLXLXKXLXLXLXLXKXHXnXhXhXhXFXLXLXLXLXLXLXLXLXLXLXLXLXLXLXLXLXLXLXLXLXLXLX"
};
