/* XPM */
static char *cF9hXzIx[] = {
/* columns rows colors chars-per-pixel */
"64 64 161 2 ",
"   c #221E3F",
".  c #170F56",
"X  c #180F57",
"o  c #170E5D",
"O  c #180F5E",
"+  c #181056",
"@  c #1A115E",
"#  c #231F40",
"$  c #252142",
"%  c #292546",
"&  c #2B2748",
"*  c #302C4D",
"=  c #3A3657",
"-  c #1C1461",
";  c #201765",
":  c #231A65",
">  c #201768",
",  c #231A69",
"<  c #272067",
"1  c #2B236B",
"2  c #2F286E",
"3  c #31296E",
"4  c #2C2473",
"5  c #302774",
"6  c #332B74",
"7  c #342C7A",
"8  c #3A3476",
"9  c #3F3974",
"0  c #37307A",
"q  c #3C357A",
"w  c #423E5D",
"e  c #433F61",
"r  c #433C7B",
"t  c #454164",
"y  c #484466",
"u  c #4B4668",
"i  c #4E496B",
"p  c #514E67",
"a  c #514C6E",
"s  c #58566D",
"d  c #464177",
"f  c #46417B",
"g  c #4B457C",
"h  c #4D497E",
"j  c #544F71",
"k  c #514C7E",
"l  c #565172",
"z  c #55517E",
"x  c #5B577B",
"c  c #5F5B7D",
"v  c #615C7E",
"b  c #3E3580",
"n  c #443D83",
"m  c #474086",
"M  c #494286",
"N  c #4F4A81",
"B  c #4B4488",
"V  c #4F488B",
"C  c #524D84",
"Z  c #544D8C",
"A  c #565282",
"S  c #5A5681",
"D  c #5D5A82",
"F  c #575288",
"G  c #59548A",
"H  c #5E598C",
"J  c #5C5591",
"K  c #5F5892",
"L  c #635E83",
"P  c #625D8E",
"I  c #635E93",
"U  c #656184",
"Y  c #696586",
"T  c #67648F",
"R  c #6B6689",
"E  c #6E698C",
"W  c #716C8E",
"Q  c #696593",
"!  c #6F6B94",
"~  c #6C659D",
"^  c #6F6A9A",
"/  c #726E91",
"(  c #716C98",
")  c #767195",
"_  c #797596",
"`  c #77739C",
"'  c #7A769B",
"]  c #7D799E",
"[  c #756FA6",
"{  c #7770A4",
"}  c #7E79A3",
"|  c #7B75A9",
" . c #807C9F",
".. c #827DA2",
"X. c #827DAC",
"o. c #847DB1",
"O. c #8581A5",
"+. c #8883A7",
"@. c #8E8DA5",
"#. c #8681AD",
"$. c #8B86AB",
"%. c #8E89AB",
"&. c #918CAE",
"*. c #9998AC",
"=. c #8782B1",
"-. c #8B86B2",
";. c #8E89B4",
":. c #8F8AB9",
">. c #938EB1",
",. c #928DBB",
"<. c #9591B4",
"1. c #9994B6",
"2. c #9A96BA",
"3. c #9D99BC",
"4. c #A19BBE",
"5. c #A5A3BB",
"6. c #A8A6BE",
"7. c #9C96C1",
"8. c #9F9BC0",
"9. c #A29EC2",
"0. c #A39DC9",
"q. c #A6A1C5",
"w. c #A9A3C7",
"e. c #A7A3C8",
"r. c #AAA6CA",
"t. c #AEA9CD",
"y. c #B0ABCF",
"u. c #AEA7D0",
"i. c #AFAAD0",
"p. c #B3ADD2",
"a. c #B5B1D3",
"s. c #B6B1D5",
"d. c #B9B3D6",
"f. c #B8B2D7",
"g. c #B8B4D5",
"h. c #BCB8D6",
"j. c #B7B1D8",
"k. c #BAB6D8",
"l. c #BCB6DA",
"z. c #BDB7DA",
"x. c #BDB7DB",
"c. c #BDB9DA",
"v. c #BEB8DC",
"b. c #BFBADC",
"n. c #C0BBDD",
"m. c #C1BCDD",
"M. c #C2BDDD",
"N. c #C3BEDE",
"B. c #C4C1DF",
"V. c #C6C1DF",
"C. c #C5C2DF",
"Z. c #C9C4DF",
"A. c #C5C1E0",
"S. c #C6C2E0",
"D. c #C6C3E0",
"F. c #C7C4E1",
"G. c #C9C5E1",
"H. c #C9C6E2",
"J. c #CBC8E3",
"K. c #CDCAE3",
"L. c #D1CEE5",
/* pixels */
". X X X X X X X X X X X X X X X O X X X X X X X W r X X X X X X X X X X X X X X X . . g _ . + . o + 9 @.*./ o . . @ + + + . . + ",
"o O O O O O O O O O O O O O o - P : X O O O O ; r : O X O O O O O O O O O O O O O O O C ..O @ @ - @ : h +.8 o o @ T - O @ @ @ o ",
"o O O O O O o o o O O O O O O O 3 ; O O @ O @ P 3 O O O O O O X O O O O O O O O O O @ C O.O O 3 T O o @ 2 O O O @ 3 @ O X o o @ ",
"O O O O O o @ ..1 O O O O O O O O - O O @ O @ ( r @ O O O @ ; ; C C - ; ; ; - - O O @ : 6 o O : 2 @ @ @ O O O O o o @ O o o @ o ",
"O O O O O o - 6.6 O O O o - o o O G 3 O O X n G P r O O O J o.-.9.9.X.X.o.o.$.I @ @ @ O O o 6 G O O O O O O O O - O O O o o F - ",
"O O O O O O @ C : O O O @ C ; O O r : @ O X r J C P X.X.o.r.M.S.K.S.M.N.G.G.S.u.| | { M o O f #.O O O O O O O 1 Q O O O o o f @ ",
"O O o ; @ O O O O O O O O 2 - o O O @ @ ; ,  .n.0.s.M.L.s.s.n.n.n.S.H.H.L.n.d.S.h.i.k.a.e.7.[ C Q @ O O O O O 8 >.o O O O O @ X ",
"O O o I < O O O O O o o - H : O O O O : I o.n.N.p.s.M.M.n.n.n.p.p.n.S.G.S.G.M.G.B.a.p.B.v.k.e.2.X.- O O O O o - 8 o O O O O O X ",
"o o o r ` - o o o o o o @ ' , @ O O O X.n.N.K.N.w.0.n.n.n.x.x.n.d.p.v.A.M.n.d.a.H.a.r.M.D.v.x.x.9.P o O O O O O o o @ O O O O X ",
"O o - - N - @ o - H : o P H Q 1 - ~ o.n.N.N.K.N.n.n.n.n.n.n.n.n.x.d.n.M.M.p.e.w.a.s.p.c.k.p.x.x.r.$.{ C O O @ O @ , C @ O O O X ",
"o o O o o o o o - F : o G H H 2 J j.G.K.N.N.N.N.n.M.n.n.x.n.n.n.v.v.v.v.n.x.p.p.p.i.p.j.u.d.v.k.r.9.3.$.r 3 F O @ : G G - O O O ",
"G ; O O o o - P : @ O o - ' 1 K u.G.K.S.N.N.S.N.n.n.x.x.n.n.x.n.v.v.v.v.x.x.j.l.s.e.s.p.e.p.p.k.s.d.1.1.3.#.<.@ O O : F - O O O ",
"8 - @ o @ o - 5.6 O o o - 8 =.p.Z.G.S.n.n.n.n.n.n.n.d.n.N.n.j.s.v.v.v.l.p.r.p.s.t.u.e.e.e.t.s.a.9.s.2.w.1.1...- O O O O @ O O X ",
"o O o @ o o @ g : O O o ^ #.s.x.N.n.n.n.n.n.n.x.n.n.n.n.n.n.j.j.l.l.v.v.j.p.t.t.s.k.p.p.a.s.x.i.4.d.2.2.3.4.$.~ - o O O O O O O ",
"O O o P : @ o o o o o o y.B.D.D.n.n.l.n.n.n.j.n.j.n.s.n.x.x.x.x.p.p.n.j.p.v.p.e.p.k.j.t.t.t.t.e.w.d.2.w.9.1.>.r.o.o O O O O O O ",
"O O @ C : O O O O o o @ h.D.H.D.n.n.j.n.n.n.n.n.n.n.j.n.x.x.x.x.j.p.n.p.j.n.u.e.s.s.u.y.t.e.9.q.r.4.9.d.r.3.&.x.p.O o O O O O X ",
"O O O o o O O O O O - Z m.A.H.S.v.v.s.n.n.x.n.x.n.x.x.v.v.j.j.l.s.j.v.x.x.x.s.p.v.s.u.j.x.j.r.q.r.4.9.w.p.t.%.w.p.r - O O O O O ",
"O O O O O O O O O O I r.A.n.S.D.x.v.p.d.n.x.n.x.x.x.n.x.l.j.j.v.j.s.x.x.s.s.v.x.x.v.s.p.s.a.j.t.r.d.4.2.9.9.4.<.4.} N o O O O X ",
"O O O O O O O O @ - 3.n.D.D.J.n.x.p.d.x.x.n.x.x.x.n.x.x.x.x.x.u.p.x.v.x.k.s.v.x.v.v.v.x.x.i.u.d.r.k.9.w.p.p.k.q.&.t.2.- O O O O ",
"o o o O O O O O - ~ p.n.n.S.M.x._ L L e.x.x.x.n.x.x.n.x.x.x.v.j.s.x.x.x.x.k.s.p.v.v.j.p.v.a.e.r.r.d.9.e.d.p.d.3.%.q.e.I - o o o ",
"> O , O - O - O 1 u.H.n.x.Z.n. ._ = # j 2.n.n.n.x.n.x.n.n.d.n.n.x.$.L v &.x.p.r.v.v.j.s.v.p.e.i.p.k.9.9.9.e.4.4.$.2.9.9., , @ > ",
", - , O , - > O J d.n.x.h.n. .W _ w # # v 0.n.x.x.h.x.x.d.n.n.n.8.a # # a <.p.p.v.v.v.v.v.p.p.x.p.p.e.r.4.9.%.4.&.1.1.4.Z , - > ",
"O > O > O - O - 3.S.M.Z.Z.h.* +.i   # # # -.x.x.x.n.x.x.n.d.M.1.W w   w t t 2.v.v.v.x.x.x.x.j.p.e.r.p.x.p.3.<.1.$.4.r.4.o.@ - X ",
"o > O > O , - , 4.L.G.G.M.h.L _ L * # # e 4.x.n.x.x.n.x.n.n.o. .$.W   p s $ R v.v.x.k.s.x.j.u.l.t.p.p.p.x.r.9.r.&.h.d.9.} - , O ",
"> > > > , , , , 9.L.H.B.Z.c.x.&.W = # R 7.n.n.n.n.n.n.n.n.j...w &.4.l $   $ E x.v.x.j.j.x.x.v.x.x.p.r.e.p.9.<.2.&.p.9.1.} 4 , - ",
"> 4 , 4 , 4 4 | c.L.K.D.Z.n.x.d..._ _ y.n.n.n.n.p.n.n.j.n.j.o. .W R W l   w >.x.v.v.v.v.v.v.j.p.k.v.p.e.p.r.2.9.2.r.w.9.2.| 4 , ",
", n b n q n n H.L.L.K.Z.B.x.x.x.n.j.d.n.n.j.n.n.v.j.n.j.j.n.p.n.1.W W a y O.x.n.x.p.v.v.v.x.j.p.j.p.r.e.p.p.1.1.2.y.d.y.p.j.4 - ",
"5 B B n M M V K.L.L.H.D.x.x.x.x.n.n.d.n.n.n.n.n.v.j.n.n.n.n.n.n.n.x.O.a +.x.x.n.p.p.v.v.v.v.x.k.u.9.e.t.k.e.>.1.>.y.y.r.r.p.4 4 ",
"5 m B B B B V D.B.L.L.Z.d.x.x.n.n.j.1.........9.x.v.n.j.n.n.n.p.j.x.x.x.x.n.x.n.x.x.x.j.p.v.x.k.t.r.r.k.s.r.r.r.r.3.4.4.r.r.4 4 ",
"5 B B m B B V D.S.L.K.n.d.x.x.x.n.1.i & % % & L o.0.n.d.j.n.n.y.p.x.x.v.x.d.s.x.v.v.x.j.u.v.x.x.x.k.u.k.r.p.p.2.k.x.p.j.9.p.4 4 ",
"5 n n n m m V D.L.K.M.d.M.n.x.n.j.e # # # # #   % E n.n.j.n.n.n.x.x.x.x.p.p.d.x.x.v.x.x.v.v.x.x.x.k.p.p.9.p.r.w.r.9.r.d.d.u.4 4 ",
"4 4 5 5 n B V D.L.B.n.x.M.x.x.x.n.e # # # # # # # ..n.n.o.4.n.X.>.x.n.x.p.j.p.p.v.v.v.v.v.v.k.u.p.x.r.k.t.p.p.p.r.&.9.p.x.d.4 4 ",
"4 4 4 5 n n V Z.Z.d.d.d.d.d.x.x.n. .w         # p >.o.4.$.1.n.$.$.n.x.x.x.x.j.p.x.x.x.x.v.x.v.r.r.k.r.k.s.e.4.3.q.<.2.t.q.q.4 1 ",
"4 4 4 7 V B V L.L.n.n.Z.n.n.d.2.w.n.j         w 1.n.W ..n.d.n.n.x.x.x.x.x.x.x.x.x.x.x.n.v.x.v.j.u.p.r.x.a.1.%.%.%.1.<.p.1.1.4 4 ",
"4 4 4 n n V V u.Z.K.K.Z.n.n.d. .1.n.R $     w ..n.n.s.9.e.9.0.n.n.n.x.x.j.d.p.p.p.x.x.v.v.x.x.p.p.9.r.p.y.<.2.4.<.@.<.3.u.,.4 4 ",
"4 4 q n B n n J y.Z.Z.Z.M.n.n.u.4.u.n.j % *  .n.w.u.n...$./ X.x.x.x.x.p.p.p.r.u.j.x.v.v.x.x.p.t.p.e.e.r.t.e.s.e.y.>.2.<.:.b 4 1 ",
"4 5 n B V n B n w.Z.n.M.M.n.n.d. .2.n.n.x o.n.n. .o.n.n.n.x.n.n.x.x.j.p.n.x.x.x.x.x.c.x.j.s.j.p.x.p.p.9.2.1.w.w.r.t.t.r.,.7 4 4 ",
"4 7 n n n M n n w.Z.n.M.n.d.d.n.n.n... .e v w.n.n.n.n.n.n.n.x.k.4.2.p.r.j.n.x.x.s.x.n.x.j.p.x.x.u.3.p.p.p.3.>.<.p.k.u.e.:.5 4 4 ",
"5 n n n n n q 5  .y.n.n.d.n.n.j.1...e $   # U  .w.n.n.n.2......./ $.p.u.j.v.x.p.u.x.v.v.v.s.s.v.e.>.x.x.s.p.9.>.9.k.u.2.[ 4 4 4 ",
"5 n B n n r 5 5 5 y.n.d.j.n.n.s.U e e e &        .>.>.&.R e u e _ x.x.x.x.v.x.p.t.x.x.v.v.a.r.x.e.>.d.r.e.p.9.2.r.j.x.u.7 4 4 4 ",
"7 n B n B r 5 4 7 o.n.n.n.n.n.j.n.u.u.u.R e a u a j j l $.p.u.p.j.x.n.x.v.v.x.j.p.x.x.x.x.t.t.j.q.3.a.2.5.y.r.t.j.e.j.:.7 6 4 5 ",
"n n G n G 6 r 4 q n 0.n.n.j.n.j.n.n.n.n.u.w.w.w.r.e.r.9.p.n.n.v.n.x.n.x.v.v.x.x.x.x.x.x.x.t.p.j.a.y.g.i.t.e.p.3.p.r.9.N 7 r 5 9 ",
"4 7 5 6 5 5 4 5 5 5 o.d.Z.u.n.n.n.n.n.j.s.n.n.n.v.v.v.v.n.n.v.n.x.v.x.x.x.x.x.s.k.x.x.x.x.s.q.y.t.3.p.1.<.1.2.8.e.<.^ 4 6 4 6 4 ",
"5 r 5 r 5 r 6 r 5 r q  .n.n.j.n.p.n.p.n.n.n.n.n.v.v.v.v.v.p.p.j.v.v.x.x.x.x.p.p.x.x.j.x.k.s.k.p.x.d.e.q.3.e.1.4.y.I r 4 0 4 q 1 ",
"r r r r r r r 6 r 8 r r 6.n.y.n.s.d.s.d.y.l.n.n.v.v.v.v.x.p.r.p.v.x.x.k.d.x.v.x.j.u.t.d.t.t.p.t.s.t.<.<.1.9.e.s.2.7 6 6 6 6 6 2 ",
"r r r g r g h r g g r g 2.n.n.n.n.d.n.j.w.p.d.n.v.v.x.j.x.x.v.x.x.x.u.u.x.j.j.d.p.e.e.e.3.w.4.c.t.1.y.w.w.2.d.r.} f g f g f g f ",
"r r r r r r r r 8 g r r r o.n.n.N.n.x.x.j.n.n.n.x.v.x.p.r.p.c.v.x.p.u.x.p.u.p.e.u.d.t.4.w.w.t.p.y.r.4.3.2.q.3.O.C 8 f 6 r 8 f 6 ",
"r r r r r k r h g g r g g P 4.d.n.n.n.s.x.s.x.x.v.x.k.x.j.k.x.x.x.x.j.x.x.l.t.e.p.u.d.e.1.3.>.&.<.>.%.<.p.e...F g f g f g f g f ",
"j h r k r z k k r C C k r r C o.w.e.t.t.e.t.k.v.v.p.s.v.d.k.v.x.a.p.t.q.p.p.q.9.t.k.e.3.t.&.2.1.1.<.$.$.+.! h h h h h g h h h f ",
"h h h k k C r C k k r k z k r S ;.e.e.h.p.t.s.x.s.i.s.x.t.t.s.k.t.3.3.e.p.p.9.>.t.t.2.1.w.2.3.q.3.w.&.+.! N h h h g N g N g h g ",
"k C h h k r k k r C k z C r k k A ,.3.p.g.g.s.s.t.3.t.k.e.e.e.t.a.q.>.4.8.3.q.2.t.q.%.>.*.a.q.>.1.&.%._ N h h h h h g h h g h f ",
"h r h h k k r C z r k r k k z r g N h -.9.a.t.q.p.u.p.p.2.e.t.2.q.g.t.2.%.<.t.g.p.2.>.9.3.<.3.&.%.] C g h h h h h h N h h h h g ",
"k r h r z k k r C r z r k r z r g g k G | q.a.4.e.d.k.j.r.u.r.e.e.t.g.q.%.<.q.e.r.2.<.3.9.9.<.q.%.F h h h h h h h h h h h h h g ",
"L z L k D k L r D k D z L k L D D k D g U T 3.3.%.e.k.p.p.t.3.3.3.q.e.@.<.q.q.&.>.3.e.%.%.%...W H D z H h x h S h D k D k L k x ",
"h k r k r k r k r z r z r k r z g k g g N N h g g T $.3.e.r.y.y.i.q.%.<.>.>.1.;.] }  .Q k h h h h h k g h h h h k h h h h h h g ",
"r L k D z D z L k L k D A L r S N x A D k S A z k S G D G ! ....#.-.O.] ] } %.$.D S L z S N x k z h x g D h D z c h S h S g S a ",
"k k h z k k h C k k k k r z k k h h k h h z g k h h h h h k A A A A A A A A A F k h k h k k N k k h k h k k k k k h k h k h k a ",
"L L L L L L L L L L L L Y L L L L U U U U U L U U U U U U U D U U U U D D U L U U U U L U L L L L L L L U L U L U L U L U L L D ",
"z L z L z L x Y x L S L A L A L A U D U S L D D x D c D D D D U D D D D D z c A D D L S U S L S L z L S L S U x U S L A L A L k ",
"L L L L L Y L Y L Y L Y L L L L U U U U U U L U U U H U U U U U U U U U U U U U U U U U U U U L U L U L U L Y U U L U L U U U c ",
"Y Y Y Y Y Y Y Y Y Y Y Y Y Y Y Y Y Y Y Y Y Y Y Y U Y Y Y Y Y Y Y Y Y Y Y Y Y Y Y Y Y Y Y Y Y Y Y Y Y Y Y Y Y Y Y Y Y Y Y Y Y Y U ",
"Y Y Y Y Y Y Y Y Y Y Y Y Y Y Y Y Y Y Y Y Y Y Y Y Y Y Y Y Y Y Y Y Y Y Y Y Y Y Y Y Y Y Y Y Y Y Y Y Y Y Y Y Y Y Y Y Y Y Y Y Y Y Y v ",
"Y Y Y Y Y Y Y Y Y Y Y Y Y Y Y Y Y Y Y Y Y Y Y Y Y Y Y Y Y Y Y Y Y Y Y Y Y Y Y Y Y Y Y Y Y Y Y Y Y Y Y Y Y Y Y Y Y Y Y Y Y Y Y v ",
"Y Y Y Y Y Y Y Y Y Y Y Y Y Y Y Y Y Y Y Y Y Y Y Y Y Y Y Y Y Y Y Y Y Y Y Y Y Y Y Y Y Y Y Y Y Y Y Y Y Y Y Y Y Y Y Y Y Y Y Y Y Y Y Y "
};
