/* XPM */
static char *f5cbfc781cdf40979681e2a3bf48c1771FxMDOXQ4v6xVJ5s[] = {
/* columns rows colors chars-per-pixel */
"64 64 195 2 ",
"   c #0D221F",
".  c #16221D",
"X  c #1D1021",
"o  c #281826",
"O  c #2B152D",
"+  c #34132B",
"@  c #2F0F31",
"#  c #350D34",
"$  c #3D0E37",
"%  c #3C0D3B",
"&  c #351932",
"*  c #3B1933",
"=  c #3F1038",
"-  c #0A2223",
";  c #0A2725",
":  c #1C2623",
">  c #142C25",
",  c #1C2C24",
"<  c #0E322C",
"1  c #183129",
"2  c #0C3436",
"3  c #28252C",
"4  c #232B2A",
"5  c #23342C",
"6  c #26372F",
"7  c #30352F",
"8  c #302E37",
"9  c #2A3934",
"0  c #2D3D34",
"q  c #343A3B",
"w  c #430E3D",
"e  c #4E1237",
"r  c #451039",
"t  c #4C123C",
"y  c #56153A",
"u  c #66193C",
"i  c #6C1C3D",
"p  c #731E37",
"a  c #741C3E",
"s  c #7C1D3E",
"d  c #4C242C",
"f  c #502E30",
"g  c #523030",
"h  c #6D283D",
"j  c #77223C",
"k  c #174439",
"l  c #2E4439",
"z  c #33433A",
"x  c #37463E",
"c  c #59453C",
"v  c #4C1242",
"b  c #541144",
"n  c #5D1545",
"m  c #5E1449",
"M  c #641644",
"N  c #6A1647",
"B  c #651846",
"V  c #6C1B43",
"C  c #771A46",
"Z  c #7E1B42",
"A  c #722042",
"S  c #7A2342",
"D  c #0E4141",
"F  c #134B43",
"G  c #144A46",
"H  c #15554C",
"J  c #17554C",
"K  c #354740",
"L  c #3B4B42",
"P  c #365749",
"I  c #235A51",
"U  c #1F6454",
"Y  c #246B57",
"T  c #2B735D",
"R  c #25795F",
"E  c #2E7963",
"W  c #4D524C",
"Q  c #415B4D",
"!  c #435756",
"~  c #465D52",
"^  c #4A5955",
"/  c #4B6356",
"(  c #466852",
")  c #4C655B",
"_  c #4D6A5A",
"`  c #51655D",
"'  c #59635D",
"]  c #516C5E",
"[  c #6A6554",
"{  c #536E60",
"}  c #547262",
"|  c #597767",
" . c #5B7C6A",
".. c #821F35",
"X. c #841E3E",
"o. c #891D3F",
"O. c #832729",
"+. c #9B2C2C",
"@. c #872539",
"#. c #89233C",
"$. c #922434",
"%. c #9A2534",
"&. c #93203B",
"*. c #992C3B",
"=. c #85353E",
"-. c #8E3A3F",
";. c #9A3539",
":. c #A42E29",
">. c #AA2F2A",
",. c #AA352E",
"<. c #A22836",
"1. c #A12638",
"2. c #A83737",
"3. c #A4393B",
"4. c #B6453C",
"5. c #801C40",
"6. c #832540",
"7. c #852C45",
"8. c #8B2941",
"9. c #902F44",
"0. c #8C3B47",
"q. c #953846",
"w. c #A03E44",
"e. c #9A464A",
"r. c #875445",
"t. c #AD4F47",
"y. c #A94848",
"u. c #BB5345",
"i. c #B4524A",
"p. c #BA564C",
"a. c #AC5757",
"s. c #B55956",
"d. c #BD6659",
"f. c #BB6B62",
"g. c #C6544C",
"h. c #D05C48",
"j. c #CD654E",
"k. c #C76554",
"l. c #CD6B5A",
"z. c #D56F58",
"x. c #D27255",
"c. c #D37759",
"v. c #C96660",
"b. c #C4756B",
"n. c #CC7768",
"m. c #D67763",
"M. c #D47863",
"N. c #358C6C",
"B. c #34916D",
"V. c #648876",
"C. c #948574",
"Z. c #AA8C7B",
"A. c #D3826C",
"S. c #DD836B",
"D. c #DA8A6C",
"F. c #CE8173",
"G. c #CB8779",
"H. c #D58876",
"J. c #DA8C74",
"K. c #D79378",
"L. c #D9947E",
"P. c #E58A7A",
"I. c #E3927B",
"U. c #55AA84",
"Y. c #64CC99",
"T. c #DE9D88",
"R. c #E39D83",
"E. c #EB9B89",
"W. c #F09A8F",
"Q. c #D7AC94",
"!. c #E4A38A",
"~. c #E4A68B",
"^. c #E9A48C",
"/. c #EEA492",
"(. c #EBA995",
"). c #ECAC94",
"_. c #F1A596",
"`. c #F3AD9B",
"'. c #EAB197",
"]. c #EEB69C",
"[. c #F3B19E",
"{. c #F4B5A2",
"}. c #F2BCA4",
"|. c #F7BEAA",
" X c #E7C9AF",
".X c #F6C3AB",
"XX c #F4C5AA",
"oX c #F8C6AE",
"OX c #F5CCB1",
"+X c #F9CBB2",
"@X c #F4D2B7",
"#X c #FAD1B6",
"$X c #FBD5BA",
"%X c #FDDABE",
"&X c #FEDCC0",
/* pixels */
"% % % % % % % % % % % % % % % % % % % % % % % % % % % % % % % % % % % % % % % % % % % % % % % % % % % % % % % % % % % % % % % % ",
"% % % % % % % % % % % % % % % % % % % % % % % % % % % % % % % % @ @ O % % % % % % % % % % % % % % % % % % % % % % % % % % % % % ",
"% % % % % % % % % % % % % % % % % % % % % % % % % % % % % # O X 9 K ~ q # % % % % % % % % % % % % % % % % % % % % % % % % % % % ",
"% % % % % % % % % % % % % % % % % % % % % % % % % % # @ X , l }  .| _ / 3 # % % % % % % % % % % % % % % % % % % % % % % % % % % ",
"% % % w % % % % % % % % % % % % w % % % % % % # @ o : l _  .V.) / / / / ! 8 # % % % % % % % % % % % % % % % % % % % % % % % % % ",
"v w w w w w w w w v w w v w v w w w w v v r % 3 K P {  .] _ / ) / ) ] } } ~ & v w v w v % v v v v % v v w w v w v w w v v % w v ",
"% % w % w w % w w w % % w % % % % w % % % w # 5 {  .) / / / / ] | | ] ~ P 9 O % % % % % % v % % % % % % % % w % % w % % w % % % ",
"v v v v v v v v w v v v v v v v v v v v v v = : L { { / / | V.} ~ L z 5 . 1 & v v v v v v v v v v v v v v v v v v v v v v v v v ",
"v v v v v b v v b v v v v b v v v v v v v b = : x x } V. .) z 9 0 > < 2 ; , & v v v v v v v v v v v v v b v v v v v v v v v v b ",
"b v v v v v v v v v v v v v v v v v v v v v w : z z { Q 6 5 > < k k U N.< , & v v v v v v v v b v v v v v v v b v v v v v v v v ",
"b b b b b b b b b b b b b b b b b b b b b b v : 0 0 ] l   2 2 T N.E B.J - : & b b b b b b b b b b b b b b b b b b b b b b b b b ",
"b b b b b b b b b b b b i p b b b b b b b b w : 0 0 ] x < R D I N.G N.2 - , & b b b b b b b b b b b b b b b b b b b b b b b b b ",
"b b b b b b b b b b b b @.p.i b b b b b b b w : z 0 ] z - E J 2 R G Y B.k 1 + b b b b b b b b b b b b b b b b b b b b b b b b b ",
"m m m m m m m m m m m m S k.q.B m m m m m M e : 0 0 ] x   Y Y J G J F F   , * m m m m m m m m m m m m m m m m m m m m m m m m m ",
"m m m m m m m m m m M m S H.d.B M m m m m m e 4 z z ] l ; R U F ; < > 5 , , * m m m m m m M m m m m m m m m m m m m m m m m m m ",
"N N N N N N N N N N N N 7.H.H.6.N N N N N N u o z z { z - k < > 5 5 9 5 . d y N N N N N N N N N N N N N N N N N N N N N N N N N ",
"N N N N N N N N N N N N N 7.G.W.9.C N N N N N N o 7 { z . , 0 5 7 3 o t M N N N N N N N N N N N N N N N N N N N N N N N N N N N ",
"N N N N N N N N N m N N N N 7.W.W.G.a.q.C A s 7.r.c { L 6 q W [ r.p M N N N N N N N N N N B N B M m N N N N N N N N N N N N M N ",
"C C C C C C C C C C C 5.5.C 5.9.a.W.`.E.v.F.H.!.].Q.V.c C.Z.Q.$X}.n.y.Z C C C C C C C C C C C V ^ ' N C C C C C C C C C C C C C ",
"C C C C C C C C C C C N C C N 5.C 5.a.l./.XX%X%X%X%X@X X%X$X$X%X&X+X].i.C C C C C C C C C C V ! Y.^ N C C C C C C C C C C C C C ",
"C C C C C C C C N 5.N 5.N 5.5.5.C C C C +.+.+.p.A.J.K.'.%X&X&X&X&X&X|.z.C C C C C C C C C V _ Y.! N C C C C C C C C C C C C C C ",
"Z Z Z Z C Z Z Z 5.5.5.5.5.5.5.5.Z Z Z Z C Z Z X.o.o.2.S.}.&X&X&X&X&X%X/.X.Z Z Z C 5.Z Z C ` U.` C Z Z Z Z Z Z Z Z Z Z Z C Z Z Z ",
"Z Z Z Z Z Z Z Z 5.C 5.5.5.5.5.5.Z Z Z Z Z Z Z Z Z Z #.n.).%X&X&XoX#X$X}.+.Z Z Z Z Z Z C ` U.` C Z X.Z Z Z Z Z Z Z Z Z Z Z Z Z Z ",
"Z Z Z Z 5.Z Z Z 5.5.5.5.5.5.5.5.Z Z Z Z Z Z Z Z Z Z s ,.[.+X$X|.J.(.{._.+.Z Z Z Z Z C ! Y.` A 5.Z s Z Z Z Z Z Z Z Z Z Z Z X.Z Z ",
"5.5.8.5.5.&.5.5.&.5.&.5.&.5.&.5.o.o.o.o.o.o.o.o.o.o.o.o.j./.I.m.m.m.S.g...o.o.o.o.j ` Y.^ s o.o.&.5.5.&.&.5.&.5.s 5.8.5.5.&.5.&.",
"5.8.5.&.5.5.&.5.5.&.5.&.5.5.5.&.o.o.o.o.o.o.o.o.o.o.o.o.3.E.`.E.W.W.P.j.o.o.o.o.j ' U.` s o.o.o.5.&.5.5.5.&.5.5.5.8.5.5.&.5.5.5.",
"&.&.1.&.&.&.&.&.&.&.1.&.&.&.&.&.&.&.&.&.&.&.&.&.&.&.&.&.*.S.%X+X[.`._.).%.&...d W U.' @.&.&.&.&.1.&.&.&.1.&.1.&.1.&.&.&.&.1.1.1.",
"&.&.&.&.&.&.&.&.&.&.&.&.&.&.&.&.&.&.&.&.&.&.&.&.&.&.&.&.%.s.XX#XoX[._.oX>...d x P ^ 6.&.&.&.&.&.&.&.&.&.&.&.5.&.&.&.&.&.&.5.&.&.",
"&.&.&.&.&.&.&.&.&.&.&.&.&.&.&.&.&.&.&.&.&.&.&.&.&.&.&.&.&.y.].%XoX`.`.`.D.c T l f e &.&.&.&.&.&.&.&.&.&.&.&.&.&.&.&.&.&.&.&.&.&.",
"1.1.1.1.1.1.1.1.1.1.1.1.1.1.1.1.1.1.1.1.1.1.1.1.1.1.1.1.<.p.XX&XoX`.`.).K.( P l e &.1.1.1.1.1.1.1.1.1.1.1.1.1.1.1.1.1.1.1.1.1.1.",
"1.1.1.1.1.1.1.1.1.1.1.1.1.1.1.1.1.1.1.1.1.1.1.1.1.1.1.1.<.m.#X&XoX/.`.`.I.[ x g &.1.1.1.1.1.1.1.1.1.1.1.1.1.1.1.1.1.1.1.1.1.1.1.",
"1.1.1.1.1.1.1.1.1.1.1.1.1.1.1.1.1.1.1.1.1.1.1.1.1.1.1.1.2.).%X%XoX`.[.[.).[ g $.1.1.1.1.1.1.1.1.1.1.1.1.1.1.1.1.1.1.1.1.1.1.1.1.",
"1.1.1.1.1.1.1.1.1.1.1.1.1.1.1.1.1.1.1.1.1.1.1.1.1.1.1.1.x.$X&X&X[.[.[.`./.4.O.<.1.1.1.1.1.1.1.1.1.1.1.1.1.1.1.1.1.1.1.1.1.1.1.1.",
"1.1.1.1.1.1.1.1.1.1.1.1.1.1.1.1.1.1.1.1.1.1.1.1.1.1.1.<.D.$X&X&X[.[.`.[._.4.<.<.1.1.1.1.1.1.1.1.1.1.1.1.1.1.1.1.1.1.1.1.1.1.1.1.",
"1.1.1.1.1.1.1.1.1.1.1.1.1.1.1.1.1.1.%.1.1.1.1.1.1.1.1.>.].&X&X+X[.W._.[.P.,.1.1.1.1.1.1.1.1.1.1.1.1.1.1.1.1.1.1.1.1.1.1.1.1.1.1.",
"&.&.&.&.&.&.&.&.o.&.&.&.&.&.&.&.&.&.&.&.&.&.&.&.&.&.&.:..X&X%X.XI.S._.[.m.%.&.&.&.&.&.&.&.&.&.&.&.&.&.&.&.&.&.&.&.&.&.&.&.&.&.&.",
"&.&.&.&.o.&.&.&.&.&.&.&.&.&.o.&.&.&.&.&.&.&.&.&.&.&.&.,.%X&X$X{.z.P.{..XM.%.&.&.&.5.1.&.&.&.&.&.&.5.&.&.&.&.&.&.&.&.&.&.&.&.&.&.",
"&.&.&.&.&.1.&.&.&.&.1.&.&.1.1.&.&.&.&.&.&.&.&.&.&.%.%.l.%X&X+XI.h.W.oX%Xl.&.&.&.1.1.&.&.&.&.&.1.&.1.&.1.&.&.&.1.&.&.&.1.&.&.&.&.",
"o.o.5.o.o.o.o.o.o.o.5.5.5.o.5.5.8.5.5.8.o.o.o.o.&.k.3.m.%X%X{.u.h.`.#X%X2.o.o.o.&.5.5.5.5.5.8.5.5.5.&.5.5.5.&.5.5.5.o.o.&.5.5.5.",
"o.o.o.o.o.o.o.o.o.o.o.o.&.5.5.5.5.5.&.5.o.o.o.o.3.R.t.m.%X$X/.2.z.{.%X+X:.o.o.o.5.5.&.5.&.8.5.5.5.&.5.&.5.&.5.&.5.&.5.&.5.&.5.&.",
"5.5.5.5.5.5.5.5.5.5.5.5.C 5.5.5.5.5.5.5.5.5.C 5.J.!.i.J.%X#Xl.6.z..X%X}.+.Z Z Z 5.Z Z 5.Z Z Z Z C 5.5.5.5.5.5.5.5.5.5.5.5.5.5.5.",
"5.5.5.5.C 5.N 5.C 5.5.5.5.5.5.5.5.5.C 5.5.5.5.&.H.D.D.K.%XXXs.$.S.+X%XD.X.Z Z Z Z Z Z Z Z Z Z Z 5.5.C 5.5.C 5.5.5.5.5.5.C 5.C 5.",
"5.5.5.5.5.5.5.5.5.5.5.C 5.5.5.5.5.5.5.5.5.5.5.5.*.A.}.~.%X~.w.+._.$X$Xc.Z Z Z Z Z Z Z Z Z Z Z Z 5.C 5.5.5.5.5.5.5.5.5.5.5.5.5.5.",
"o.5.C C C 5.N 5.C C C C N C C C 5.5.C C C C C 5.C s.XX#X%XA.6.+..X&XoXi.C C C C C C C C C C C C C C C C C N C C o.5.C C 5.N 5.N ",
"C C C C C C C C C C C C C C C C C C C C C C C C C 9.R.&XXXq.C ,..X%X'.q.C C C C C C C C C C C C C C C C C C C C C C C C C C C C ",
"C C C 5.C C 5.N C C C C C C C C C C C N C C C C C S s.'.n.6.Z g.[.|.J.8.C C C C C C C C C C C C C C C C C 5.C C C C C C C C C C ",
"m N N N N N m N N N N N N N N N N N N N N N N N N N C 0.7.V a l.[..Xd.C N N N N N M N N N N N N N N N N N N N N N m N N N N m N ",
"N N N N N N N N N N N N N N N N N N N N N N N N N N N N N N a M.^.R.e.N N N N N N N N N N N N N N N N N N N N N N N N N N N N N ",
"N N N N m m m N N N m m N N N N N N N N N N N N N N N N N N *._.#Xk.C N N N N m N N N m N N N m N N N N m m m N N N m m N N N N ",
"m m m m m m m m m m m m m m m m m m m m m m m m m m m m m M q.}.&XG.N m m m m m m m m m m m m m m m m m m m m m m m m m m m m m ",
"m m m m m m m m m m m m m m m m m m m m m m m m m m m m n M a..X#Xb.m m m m m m m m m m m m m m m m m m m m m m m m m m m m m m ",
"m m m m b b b v m m m b b b m m b b b b b b b b b b b b b u b.$XOXe.b b b m b b b m b b b m b b m m m m b b b b m m m b b b m m ",
"m b b b b b b b b b b b b b b b b b b b b b b b b b b b b u b.$X].9.v b b b b b b b b b b b b b m b b b b b b b b b b b b b b b ",
"b b b m b b b m b b b b b b b b b b b b b b b b b b b b b n a.XXT.u b b b b b b b m b b b b b b b b b b b b b b b m b b b b m b ",
"v v v v v v v v b v v v v v b b v v v v v v v v b v v v b v -.{.A.y v v v b v v v v v v v v v v v b v v v v b v v v v v v v v v ",
"v v v v v v v v v v v v v v v v v v v v v v v v b v v v v v -.{.t.b v v v v v v b v v v v v v v v v v v v v v v v v v v v v v v ",
"v v v v v v v v v v v v v v v v v v v v v v v v v v v v v v -.}.O.t v v v v v v v v v v v v v v v v v v v v v v v v v v v v v v ",
"% w % % % % % w w % w w % % % % % % % % % % % % % % % % % r =.].O.w w % % % w % w % % % w % w w % % w % % % w % w % w w % % w % ",
"v w v w v w w w w v w w w v v w v v % v v v w v w v v v v r e.}.O.w v w w w w w w v w w w v w w w v w v w v w w w w v w w w w w ",
"% % % % % % % % % % % % % % % % % % % % % % % % % % % % % h L.%Xt.r % % w % % w % % % % % % % % % % % % % % % % % % % % w w % % ",
"% % % % % % % % % % % % % % % % % % % % % % % % % % # % % h R.#X!.h % % % % % % % % % % % % % % % % % % % % % % % % % % % % % % ",
"% % % % % % % % % % % % % % % % % % % % % % % % % % % % $ e =.f.].F.h $ % % % % % % % % % % % % % % % % % % % % % % % % % % % % ",
"% % % % % % % % % % % % % % % % % % % % % % % % % % % % % % = e e.d.;.r % % % % % % % % % % % % % % % % % % % % % % % % % % % % ",
"% % % % % % % % % % % % % % % % % % % % % % % % % % % % % % % % r r r % % % % % % % % % % % % % % % % % % % % % % % % % % % % % "
};
